<?xml version="1.0" encoding="UTF-8" standalone="no"?>
<svg
   id="fc836297-f37e-43a2-86b4-5406f4a63596"
   data-name="Layer 1"
   width="1080"
   height="1080"
   viewBox="0 0 1080 1080"
   version="1.1"
   sodipodi:docname="undraw_pair_programming_njlp.svg"
   inkscape:version="1.1 (c68e22c387, 2021-05-23)"
   xmlns:inkscape="http://www.inkscape.org/namespaces/inkscape"
   xmlns:sodipodi="http://sodipodi.sourceforge.net/DTD/sodipodi-0.dtd"
   xmlns="http://www.w3.org/2000/svg"
   xmlns:svg="http://www.w3.org/2000/svg"
   xmlns:rdf="http://www.w3.org/1999/02/22-rdf-syntax-ns#"
   xmlns:cc="http://creativecommons.org/ns#"
   xmlns:dc="http://purl.org/dc/elements/1.1/">
  <metadata
     id="metadata222">
    <rdf:RDF>
      <cc:Work
         rdf:about="">
        <dc:format>image/svg+xml</dc:format>
        <dc:type
           rdf:resource="http://purl.org/dc/dcmitype/StillImage" />
        <dc:title>pair programming</dc:title>
      </cc:Work>
    </rdf:RDF>
  </metadata>
  <sodipodi:namedview
     pagecolor="#ffffff"
     bordercolor="#666666"
     borderopacity="1"
     objecttolerance="10"
     gridtolerance="10"
     guidetolerance="10"
     inkscape:pageopacity="0"
     inkscape:pageshadow="2"
     inkscape:window-width="1366"
     inkscape:window-height="705"
     id="namedview220"
     showgrid="false"
     inkscape:zoom="0.36368413"
     inkscape:cx="563.67596"
     inkscape:cy="422.06956"
     inkscape:window-x="-8"
     inkscape:window-y="-8"
     inkscape:window-maximized="1"
     inkscape:current-layer="fc836297-f37e-43a2-86b4-5406f4a63596"
     inkscape:pagecheckerboard="0"
     width="1080px" />
  <defs
     id="defs9">
    <linearGradient
       id="a340ed46-1652-4aba-8925-cf57be9109ca"
       x1="421.41"
       y1="548.66998"
       x2="423.73001"
       y2="548.66998"
       gradientUnits="userSpaceOnUse"
       gradientTransform="matrix(0.95526915,0,0,0.95526915,-33.18536,110.14043)">
      <stop
         offset="0"
         stop-color="gray"
         stop-opacity="0.25"
         id="stop2" />
      <stop
         offset="0.54"
         stop-color="gray"
         stop-opacity="0.12"
         id="stop4" />
      <stop
         offset="1"
         stop-color="gray"
         stop-opacity="0.1"
         id="stop6" />
    </linearGradient>
  </defs>
  <title
     id="title11">pair programming</title>
  <path
     d="M 558.54656,314.26234 C 490.369,325.78289 422.28697,320.84415 356.79372,313.66052 291.30046,306.4769 225.96961,297.09616 157.76339,299.92375 113.88788,301.73876 65.025861,310.43171 34.39038,335.69858 4.901221,360.00063 0.3063764,392.79502 0.24906025,422.39881 c -0.0764215,22.26732 1.85322215,45.30842 17.63426875,63.04776 10.96649,12.30387 27.846095,21.121 40.560728,32.47915 44.238513,39.45262 30.788325,101.57377 1.757695,154.3906 -13.622138,24.77969 -30.282032,49.1486 -39.557695,74.511 -9.275664,25.36239 -10.507961,52.5398 6.094617,73.22138 16.449735,20.50963 48.26975,32.06838 81.446246,38.05792 67.38469,12.17013 142.45929,4.61395 215.09796,-5.62653 160.76224,-22.74496 319.86232,-58.20455 478.6185,-93.57817 58.7395,-13.09674 117.73692,-26.2508 174.32707,-45.12691 31.42835,-10.50796 63.42985,-23.5856 83.72935,-43.94239 25.7923,-25.79226 26.4418,-61.07035 1.5857,-82.15314 -41.707,-35.34496 -136.10672,-27.5022 -168.36615,-67.91009 -17.74891,-22.24821 -10.02078,-52.46338 4.10765,-79.1536 30.29159,-57.23973 88.84003,-113.79166 81.2552,-170.85944 -5.23488,-39.16603 -45.17468,-71.57832 -98.70796,-80.02289 -56.11251,-8.8458 -128.17802,7.92873 -160.48522,47.34313 -33.21471,40.6085 -100.5994,66.98348 -160.80046,77.18575 z"
     fill="#f9b175"
     opacity="0.1"
     id="path13"
     style="opacity:0.254902;fill:#5ba3cd;fill-opacity:1;stroke-width:0.955269" />
  <rect
     x="344.10776"
     y="530.62122"
     width="270.75192"
     height="62.694313"
     fill="#565661"
     id="rect15"
     style="stroke-width:0.955269" />
  <rect
     x="344.10776"
     y="530.62122"
     width="270.75192"
     height="62.694313"
     opacity="0.1"
     id="rect17"
     style="stroke-width:0.955269" />
  <polygon
     points="366.53,427.03 393.91,427.03 395.9,602.24 368.64,671.06 "
     fill="#bcbec9"
     id="polygon19"
     transform="matrix(0.95526915,0,0,0.95526915,0.21084973,187.45036)" />
  <polygon
     points="362.99,422.38 362.99,371.84 638.94,373.5 638.94,422.38 "
     fill="#565661"
     id="polygon21"
     transform="matrix(0.95526915,0,0,0.95526915,0.21084973,187.45036)" />
  <polygon
     points="615.33,595.59 615.33,427.03 638.94,430.36 638.94,668.4 "
     fill="#bcbec9"
     id="polygon23"
     transform="matrix(0.95526915,0,0,0.95526915,0.21084973,187.45036)" />
  <rect
     x="619.13928"
     y="533.13361"
     width="127.04125"
     height="269.95908"
     fill="#efeff0"
     id="rect25"
     style="stroke-width:0.955269" />
  <rect
     x="629.30334"
     y="540.63245"
     width="106.71312"
     height="207.51311"
     fill="#565661"
     id="rect27"
     style="stroke-width:0.955269" />
  <rect
     x="629.30334"
     y="540.63245"
     width="106.71312"
     height="207.51311"
     opacity="0.1"
     id="rect29"
     style="stroke-width:0.955269" />
  <rect
     x="629.30334"
     y="544.88342"
     width="106.71312"
     height="46.053524"
     fill="#565661"
     id="rect31"
     style="stroke-width:0.955269" />
  <rect
     x="629.30334"
     y="595.37897"
     width="106.71312"
     height="97.819565"
     fill="#565661"
     id="rect33"
     style="stroke-width:0.955269" />
  <rect
     x="629.30334"
     y="699.23578"
     width="106.71312"
     height="97.819565"
     fill="#565661"
     id="rect35"
     style="stroke-width:0.955269" />
  <rect
     x="629.30334"
     y="699.23578"
     width="106.71312"
     height="97.819565"
     opacity="0.1"
     id="rect37"
     style="stroke-width:0.955269" />
  <ellipse
     cx="633.75494"
     cy="811.8811"
     rx="6.8779378"
     ry="8.788476"
     fill="#565661"
     id="ellipse39"
     style="stroke-width:0.955269" />
  <ellipse
     cx="729.13855"
     cy="812.30145"
     rx="6.8779378"
     ry="8.788476"
     fill="#565661"
     id="ellipse41"
     style="stroke-width:0.955269" />
  <polygon
     points="351.35,364.32 359,671.06 368.64,671.06 365.99,364.32 "
     fill="#efeff0"
     id="polygon43"
     transform="matrix(0.95526915,0,0,0.95526915,0.21084973,187.45036)" />
  <polygon
     points="647.91,364.32 638.94,361.87 638.94,668.4 647.91,668.4 "
     fill="#efeff0"
     id="polygon45"
     transform="matrix(0.95526915,0,0,0.95526915,0.21084973,187.45036)" />
  <polygon
     points="638.94,422.38 366.46,419.38 366.46,430.36 638.94,430.36 "
     fill="#efeff0"
     id="polygon47"
     transform="matrix(0.95526915,0,0,0.95526915,0.21084973,187.45036)" />
  <polygon
     points="730.37,341.26 780.57,357.88 780.57,367.52 349.69,364.2 349.69,354.39 384.93,341.26 "
     fill="#ffffff"
     id="polygon49"
     transform="matrix(0.95526915,0,0,0.95526915,0.21084973,187.45036)" />
  <polygon
     points="349.69,364.2 349.69,354.39 780.57,357.88 780.57,367.52 "
     fill="#bcbec9"
     id="polygon51"
     transform="matrix(0.95526915,0,0,0.95526915,0.21084973,187.45036)" />
  <path
     d="m 371.54307,635.19457 -1.91053,-0.28659 c 0,-0.086 0,-0.16239 0,-0.23881 -0.0573,-0.44898 -0.12419,-0.8884 -0.19106,-1.33738 0.78332,0.62093 1.52843,1.24185 2.21623,1.86278 z"
     fill="url(#a340ed46-1652-4aba-8925-cf57be9109ca)"
     id="path53"
     style="fill:url(#a340ed46-1652-4aba-8925-cf57be9109ca);stroke-width:0.955269" />
  <path
     d="m 330.02708,782.69768 c 1.24185,-0.28659 2.5028,-0.5254 3.76376,-0.69735 a 45.298863,45.298863 0 0 1 25.42926,3.74465 c -0.80242,5.90357 -1.5953,12.00774 0.10508,17.71069 1.18453,4.01213 3.56315,7.64216 4.06945,11.82624 a 6.9734648,6.9734648 0 0 1 5.4928,4.85276 10.555724,10.555724 0 0 1 0.5445,3.40076 18.150114,18.150114 0 0 1 -0.53495,4.2414 4.2796058,4.2796058 0 0 1 -4.58529,3.82107 c -7.39379,0.84064 -14.64428,-2.07293 -21.52222,-4.92919 l -13.37377,-5.55966 c -1.56664,-0.64959 -3.14283,-1.30872 -4.6426,-2.11115 a 25.438817,25.438817 0 0 1 -7.44155,-6.08506 3.3912055,3.3912055 0 0 1 -0.8884,-1.60485 c -0.24837,-1.68128 1.71948,-2.68431 2.97089,-3.82108 a 5.9513268,5.9513268 0 0 0 0.95527,-1.16543 c 1.48066,-2.23533 1.62395,-5.32085 2.51235,-7.95739 2.1016,-6.25701 8.59743,-10.28825 10.89007,-16.39242 0.12419,-0.33434 0.23882,-0.66869 0.33435,-1.01258"
     fill="#a26565"
     id="path55"
     style="stroke-width:0.955269" />
  <path
     d="m 369.43193,823.53543 a 18.150114,18.150114 0 0 1 -0.53495,4.2414 4.2796058,4.2796058 0 0 1 -4.58529,3.82107 c -7.39379,0.84064 -14.64428,-2.07293 -21.52222,-4.92919 l -13.37377,-5.55966 c -1.56664,-0.64959 -3.14283,-1.30872 -4.6426,-2.11115 a 25.438817,25.438817 0 0 1 -7.44155,-6.08506 3.3912055,3.3912055 0 0 1 -0.8884,-1.60485 c -0.24837,-1.68128 1.71948,-2.68431 2.97089,-3.82108 a 5.9513268,5.9513268 0 0 0 0.95527,-1.16543 c 3.68733,0.79287 8.26307,3.11418 11.08112,4.01213 a 33.644579,33.644579 0 0 1 8.06247,3.3721 c 3.51539,2.25444 6.04685,5.73162 9.02729,8.59742 2.98044,2.86581 6.83018,5.4737 10.9856,5.12025 a 18.150114,18.150114 0 0 0 6.24746,-2.15891 z"
     opacity="0.1"
     id="path57"
     style="stroke-width:0.955269" />
  <path
     d="m 353.77507,687.78213 a 4.4228962,4.4228962 0 0 1 -1.62396,4.77635 c -1.2514,0.77377 -2.86581,0.66869 -4.10766,1.50932 -1.53798,1.07946 -1.75769,3.21926 -2.02517,5.07248 -0.95527,6.37165 -4.11721,12.15103 -6.82062,18.00683 -2.70341,5.8558 -4.9865,12.24655 -3.99302,18.60864 0.67824,4.31782 2.79893,8.92221 0.81197,12.81016 -0.48718,0.95527 -1.21319,1.80546 -1.76724,2.73207 -2.72252,4.54708 -1.17499,10.30735 -1.28006,15.59954 a 3.0855194,3.0855194 0 0 1 -0.37256,1.69083 4.6712661,4.6712661 0 0 1 -1.50933,1.16543 8.0051555,8.0051555 0 0 0 -3.25746,6.14238 23.470963,23.470963 0 0 0 0.85974,7.12631 4.241395,4.241395 0 0 0 1.17498,2.4837 4.3942381,4.3942381 0 0 0 2.56967,0.726 57.163306,57.163306 0 0 1 17.44322,4.2414 c 3.62047,1.50932 7.13586,3.40075 10.98559,4.12676 a 2.8658075,2.8658075 0 0 0 2.25444,-0.23882 3.1046247,3.1046247 0 0 0 0.95527,-1.65261 c 1.48067,-4.87188 2.98044,-9.89659 2.47415,-14.95952 -0.21972,-2.17801 -0.80243,-4.30826 -0.95527,-6.48628 -0.66869,-8.59742 5.1489,-16.3542 6.99257,-24.83699 0.83108,-3.82108 0.83108,-7.7759 1.42335,-11.63518 1.60485,-10.57483 7.43199,-20.06065 9.67687,-30.52085 a 33.176498,33.176498 0 0 1 1.45201,-5.73162 c 1.67172,-4.05034 5.54056,-7.33646 5.62654,-11.72115 a 4.5661865,4.5661865 0 0 0 -0.72601,-2.73207 6.1901441,6.1901441 0 0 0 -3.41031,-1.91054 116.41865,116.41865 0 0 0 -15.8097,-3.1906 29.947688,29.947688 0 0 0 -7.432,-0.51584 21.875664,21.875664 0 0 0 -9.09416,3.2097 c -3.68734,2.27354 -1.31827,2.81805 -0.51584,6.10417 z"
     fill="#454b69"
     id="path59"
     style="stroke-width:0.955269" />
  <path
     d="m 353.77507,687.78213 a 4.4228962,4.4228962 0 0 1 -1.62396,4.77635 c -1.2514,0.77377 -2.86581,0.66869 -4.10766,1.50932 -1.53798,1.07946 -1.75769,3.21926 -2.02517,5.07248 -0.95527,6.37165 -4.11721,12.15103 -6.82062,18.00683 -2.70341,5.8558 -4.9865,12.24655 -3.99302,18.60864 0.67824,4.31782 2.79893,8.92221 0.81197,12.81016 -0.48718,0.95527 -1.21319,1.80546 -1.76724,2.73207 -2.72252,4.54708 -1.17499,10.30735 -1.28006,15.59954 a 3.0855194,3.0855194 0 0 1 -0.37256,1.69083 4.6712661,4.6712661 0 0 1 -1.50933,1.16543 8.0051555,8.0051555 0 0 0 -3.25746,6.14238 23.470963,23.470963 0 0 0 0.85974,7.12631 4.241395,4.241395 0 0 0 1.17498,2.4837 4.3942381,4.3942381 0 0 0 2.56967,0.726 57.163306,57.163306 0 0 1 17.44322,4.2414 c 3.62047,1.50932 7.13586,3.40075 10.98559,4.12676 a 2.8658075,2.8658075 0 0 0 2.25444,-0.23882 3.1046247,3.1046247 0 0 0 0.95527,-1.65261 c 1.48067,-4.87188 2.98044,-9.89659 2.47415,-14.95952 -0.21972,-2.17801 -0.80243,-4.30826 -0.95527,-6.48628 -0.66869,-8.59742 5.1489,-16.3542 6.99257,-24.83699 0.83108,-3.82108 0.83108,-7.7759 1.42335,-11.63518 1.60485,-10.57483 7.43199,-20.06065 9.67687,-30.52085 a 33.176498,33.176498 0 0 1 1.45201,-5.73162 c 1.67172,-4.05034 5.54056,-7.33646 5.62654,-11.72115 a 4.5661865,4.5661865 0 0 0 -0.72601,-2.73207 6.1901441,6.1901441 0 0 0 -3.41031,-1.91054 116.41865,116.41865 0 0 0 -15.8097,-3.1906 29.947688,29.947688 0 0 0 -7.432,-0.51584 21.875664,21.875664 0 0 0 -9.09416,3.2097 c -3.68734,2.27354 -1.31827,2.81805 -0.51584,6.10417 z"
     opacity="0.05"
     id="path61"
     style="stroke-width:0.955269" />
  <polygon
     points="342.02,674.47 336.44,559.83 336.05,553.31 343.3,550.76 343.79,557.69 350.55,674.47 "
     fill="#565661"
     id="polygon63"
     transform="matrix(0.95526915,0,0,0.95526915,0.21084973,187.45036)" />
  <polygon
     points="343.3,550.76 343.79,557.69 336.44,559.83 336.05,553.31 "
     opacity="0.1"
     id="polygon65"
     transform="matrix(0.95526915,0,0,0.95526915,0.21084973,187.45036)" />
  <polygon
     points="316.01,554.59 282.32,555.45 222.2,705.11 209.41,705.11 272.64,530.2 275.08,523.46 369.31,520.23 392.8,533.4 393.1,534.16 457.58,698.72 443.51,700.42 378.69,553.31 361.21,552.03 330.51,560.99 324.54,736.14 310.47,736.14 "
     fill="#565661"
     id="polygon67"
     transform="matrix(0.95526915,0,0,0.95526915,0.21084973,187.45036)" />
  <path
     d="m 375.72715,697.71693 c -19.3442,5.82714 -39.42396,12.18924 -39.42396,12.18924 0,0 -18.31251,6.39075 -26.06929,0 a 11.721152,11.721152 0 0 0 -3.23836,-1.78636 15.952995,15.952995 0 0 0 3.23836,1.78636 l -49.57847,-15.98166 2.3213,-6.42896 90.02457,-3.08552 22.43927,12.5809 z"
     opacity="0.1"
     id="path69"
     style="stroke-width:0.955269" />
  <path
     d="m 284.1646,669.98547 36.65368,-8.14845 c 0,0 87.57908,16.29689 94.09401,22.81183 0,0 -70.05944,14.25262 -77.79712,19.10538 -7.73768,4.85277 -53.7721,10.22138 -52.95057,-33.76876 z"
     fill="#ffffff"
     id="path71"
     style="stroke-width:0.955269" />
  <path
     d="m 268.40266,578.38471 c -2.8658,9.08461 -10.68946,17.27127 -20.21349,17.66293 a 3.5249432,3.5249432 0 0 1 -2.01562,-0.36301 c -1.19409,-0.74511 -1.22274,-2.49325 -0.73556,-3.82107 0.48719,-1.32783 1.33738,-2.52191 1.47112,-3.91661 a 2.5601213,2.5601213 0 0 0 -0.0573,-0.85019 c -0.24837,-1.13677 -1.17498,-2.14935 -2.26399,-1.91053 a 3.8210766,3.8210766 0 0 0 0.81198,-5.07248 11.46323,11.46323 0 0 1 -1.16543,-1.56664 c -0.79287,-1.62396 0.43943,-3.44853 0.95527,-5.18712 1.06035,-3.82107 -1.63351,-7.64215 -1.85322,-11.62562 -0.19105,-3.56316 1.61441,-6.91615 2.06338,-10.45065 0.71645,-5.73161 -2.13025,-11.22441 -2.46459,-16.94647 -0.22927,-3.99303 0.75466,-7.94784 1.85322,-11.79758 0.95527,-3.43896 2.03472,-6.91614 2.10159,-10.50796 0,-2.60788 -0.44897,-5.18711 -0.57316,-7.78544 a 13.555269,13.555269 0 0 1 1.2514,-6.91615 5.5310084,5.5310084 0 0 1 3.14284,-2.6843 c 3.13328,-1.0508 5.18711,0.58271 5.64564,3.5536 0.76421,5.05337 0.32479,10.21182 1.32782,15.2843 a 71.645186,71.645186 0 0 0 4.19364,13.84185 c 1.69082,4.03124 3.74465,7.92874 5.04382,12.10326 a 66.677787,66.677787 0 0 1 2.09204,10.50796 c 1.28006,9.54314 2.28309,19.36331 -0.61138,28.44792 z"
     fill="#f9b175"
     id="path73"
     style="stroke-width:0.955269" />
  <path
     d="m 485.97476,809.59805 a 14.816225,14.816225 0 0 1 -10.44109,6.15194 c -4.14586,0.51584 -8.45413,-0.5254 -12.47581,0.61137 a 3.8210766,3.8210766 0 0 0 -2.86581,2.20667 23.442305,23.442305 0 0 0 -0.1815,2.34041 c -0.46808,2.55057 -3.82108,3.12373 -6.42896,3.10463 l -10.75633,-0.0669 c -2.23533,0 -4.70948,-0.12419 -6.31433,-1.67172 a 4.6999242,4.6999242 0 0 1 -0.0955,-6.19015 3.8879454,3.8879454 0 0 1 1.20364,-0.95527 3.8210766,3.8210766 0 0 1 -2.57923,-3.06641 11.405914,11.405914 0 0 1 0.20061,-4.21274 c 0,-3.99302 0.95527,-10.67991 3.76376,-13.80364 3.44852,-3.88794 9.42851,-8.91266 14.63472,-9.9539 a 11.46323,11.46323 0 0 1 9.9157,2.81804 c 2.46459,2.29265 4.2605,5.88446 7.64215,6.28567 1.84367,0.22927 3.62047,-0.64003 5.44504,-0.95527 a 10.135406,10.135406 0 0 1 10.32645,5.45459 10.756331,10.756331 0 0 1 0.95527,2.98999 12.418499,12.418499 0 0 1 -1.94875,8.91266 z"
     fill="#a26565"
     id="path75"
     style="stroke-width:0.955269" />
  <path
     d="m 485.97476,809.59805 a 14.816225,14.816225 0 0 1 -10.44109,6.15194 c -4.14586,0.51584 -8.45413,-0.5254 -12.47581,0.61137 a 3.8210766,3.8210766 0 0 0 -2.86581,2.20667 23.442305,23.442305 0 0 0 -0.1815,2.34041 c -0.46808,2.55057 -3.82108,3.12373 -6.42896,3.10463 l -10.75633,-0.0669 c -2.23533,0 -4.70948,-0.12419 -6.31433,-1.67172 a 4.6999242,4.6999242 0 0 1 -0.0955,-6.19015 c 6.20925,-0.25792 12.31342,0 18.50356,-1.28006 2.51236,-0.50629 4.98651,-1.17498 7.52753,-1.52843 5.50235,-0.78332 11.35815,-0.11463 16.41152,-2.44549 4.21274,-1.91054 7.23139,-5.79848 9.01774,-10.1354 a 12.418499,12.418499 0 0 1 -1.90099,8.9031 z"
     opacity="0.1"
     id="path77"
     style="stroke-width:0.955269" />
  <path
     d="m 457.59372,794.49525 c -3.82108,2.96133 -8.30129,5.27308 -13.11585,5.52145 -4.81455,0.24837 -9.92524,-1.91053 -12.28476,-6.09461 -3.44852,-6.14238 -0.39166,-14.68249 -4.61395,-20.31858 -1.31827,-1.76725 -3.21926,-3.01865 -4.61395,-4.72858 -1.39469,-1.70993 -2.19712,-4.27961 -0.95527,-6.09462 -1.49977,0.57316 -3.08552,-0.87884 -3.52494,-2.42638 -0.43942,-1.54754 -0.1624,-3.2097 -0.42987,-4.77635 -0.69735,-4.15542 -4.77635,-6.82062 -6.73465,-10.50796 -1.9583,-3.68734 -1.69083,-8.47323 -1.91054,-12.83881 a 48.718727,48.718727 0 0 0 -11.27217,-28.99242 c -1.29917,-1.54754 -2.96134,-3.12373 -4.98651,-3.04731 0.35345,-3.49629 -1.97741,-6.83973 -4.99606,-8.59742 -3.01865,-1.7577 -6.61046,-2.34997 -10.10674,-2.69386 -35.27809,-3.47718 -72.03685,9.63866 -105.71964,-1.3947 -9.37119,-3.06641 -18.40804,-8.19621 -24.13965,-16.23957 a 28.390599,28.390599 0 0 1 -5.05338,-21.47445 v -0.13374 c 1.32783,-6.78241 4.91009,-8.45413 10.84231,-11.5492 a 130.14587,130.14587 0 0 1 21.38848,-8.96998 c 14.32903,-4.48021 29.75663,-6.09462 44.5442,-2.80849 6.90659,1.54753 13.56482,4.10766 20.48097,5.60743 2.72251,0.59226 5.46414,1.01258 8.22486,1.36603 4.28916,0.53495 8.59743,0.8884 12.91524,1.38514 a 195.3812,195.3812 0 0 1 40.56073,9.12282 c 4.90053,1.66217 9.80106,3.56316 14.0138,6.57226 a 31.046247,31.046247 0 0 1 12.45671,20.50007 c 0.40121,2.80849 0.41076,5.73162 1.02214,8.45413 a 42.987112,42.987112 0 0 0 2.29264,6.68689 444.80197,444.80197 0 0 1 19.95558,62.09249 15.0837,15.0837 0 0 0 1.5953,4.48977 c 1.22274,1.9774 3.32433,3.30523 4.55663,5.28264 2.86581,4.66171 0.10508,11.16709 2.64609,16.01986 0.87885,1.68127 2.34041,3.0091 3.21926,4.69037 2.86581,5.5119 -1.36603,12.10326 -6.25701,15.89568 z"
     fill="#454b69"
     id="path79"
     style="stroke-width:0.955269" />
  <path
     d="m 408.77946,684.73482 a 15.761941,15.761941 0 0 0 3.46763,-3.82107 7.1263079,7.1263079 0 0 0 1.0508,-4.93874 14.128431,14.128431 0 0 1 -3.716,12.15102 c -2.39772,2.45504 -6.89704,4.86232 -10.40288,4.02168 0.49674,-2.80849 7.37468,-5.52145 9.60045,-7.41289 z"
     opacity="0.1"
     id="path81"
     style="stroke-width:0.955269" />
  <path
     d="m 349.09425,637.12421 a 6.409856,6.409856 0 0 1 -4.2414,4.37513 17.672479,17.672479 0 0 1 -6.29522,0.73556 h -1.91054 c -25.06626,-0.55406 -50.4,-6.11372 -74.88355,-0.81198 a 54.221077,54.221077 0 0 0 -8.65474,2.55057 39.070508,39.070508 0 0 0 -9.94435,5.73161 v -0.13373 c 1.32783,-6.78241 4.91009,-8.45414 10.84231,-11.54921 a 130.14587,130.14587 0 0 1 21.35982,-8.884 c 14.32903,-4.48021 29.75663,-6.09462 44.5442,-2.80849 6.90659,1.54753 13.56482,4.10766 20.48097,5.60743 2.72251,0.59226 5.46414,1.01258 8.22486,1.36603 a 6.6009098,6.6009098 0 0 1 0.47764,3.82108 z"
     opacity="0.1"
     id="path83"
     style="stroke-width:0.955269" />
  <path
     d="m 369.44148,633.33179 a 6.4003033,6.4003033 0 0 1 -4.24139,4.38468 17.452767,17.452767 0 0 1 -6.29523,0.72601 h -1.91054 c -25.06626,-0.55406 -50.4,-6.11372 -74.88354,-0.81198 a 55.195451,55.195451 0 0 0 -8.65474,2.54102 39.357089,39.357089 0 0 0 -10.36467,6.11372 q -1.09856,-3.01865 -2.18757,-6.04686 c -0.87885,-2.40727 1.91054,-2.94222 2.44549,-5.10113 0.35345,-1.46156 -0.24837,-3.12373 -0.55406,-4.68082 a 8.1675512,8.1675512 0 0 1 -0.15284,-1.15588 c -0.17195,-3.44852 1.06035,-5.43548 3.88795,-7.29825 8.38726,-5.54056 18.61819,-9.34254 28.18999,-12.19879 a 69.734648,69.734648 0 0 1 15.66641,-3.03776 c 7.52752,-0.43942 15.04549,0.95527 22.37241,2.72252 9.00818,2.22578 17.92085,5.16801 25.9069,9.87748 3.9166,2.2831 7.73768,5.1489 9.84882,9.21835 a 7.2600455,7.2600455 0 0 1 0.92661,4.74769 z"
     fill="#a26565"
     id="path85"
     style="stroke-width:0.955269" />
  <path
     d="m 268.40266,578.38471 c -2.8658,9.08461 -10.68946,17.27127 -20.21349,17.66293 a 3.5249432,3.5249432 0 0 1 -2.01562,-0.36301 c -1.19409,-0.74511 -1.22274,-2.49325 -0.73556,-3.82107 0.48719,-1.32783 1.33738,-2.52191 1.47112,-3.91661 a 2.5601213,2.5601213 0 0 0 -0.0573,-0.85019 c 5.05338,-7.1263 9.95391,-14.32903 11.8931,-22.76406 a 12.170129,12.170129 0 0 0 0.35345,-4.46111 c -0.25792,-1.71948 -1.12722,-3.27657 -1.60485,-4.93874 -0.84064,-2.94223 -0.44898,-6.0564 -0.21016,-9.10371 a 84.063685,84.063685 0 0 0 -6.53404,-39.25201 c -1.28961,-2.98044 -2.76073,-5.99909 -3.2097,-9.18014 a 5.5310084,5.5310084 0 0 1 3.14283,-2.68431 c 3.13328,-1.05079 5.18711,0.58272 5.64564,3.55361 0.76422,5.05337 0.32479,10.21182 1.32783,15.2843 a 71.645186,71.645186 0 0 0 4.19363,13.84185 c 1.69082,4.03124 3.74465,7.92874 5.04382,12.10326 a 66.677787,66.677787 0 0 1 2.09204,10.50796 c 1.30872,9.47627 2.31175,19.29644 -0.58272,28.38105 z"
     opacity="0.1"
     id="path87"
     style="stroke-width:0.955269" />
  <path
     d="m 349.09425,635.75817 a 6.4003033,6.4003033 0 0 1 -4.2414,4.38469 17.452767,17.452767 0 0 1 -6.29522,0.726 h -1.91054 a 41.621077,41.621077 0 0 0 -27.7028,-6.68688 c -3.11418,0.37256 -6.22836,1.09856 -9.34254,0.81198 -6.29522,-0.57316 -11.39636,-5.10114 -17.00379,-7.9956 a 35.707961,35.707961 0 0 0 -39.5768,5.36861 l -0.5445,0.47763 a 8.1675512,8.1675512 0 0 1 -0.15284,-1.15587 c -0.17195,-3.44852 1.06034,-5.43548 3.88794,-7.29826 8.38726,-5.54056 18.6182,-9.34253 28.18999,-12.19879 a 69.734648,69.734648 0 0 1 15.66642,-3.03775 c 7.52752,-0.43943 15.04549,0.95527 22.3724,2.72252 9.00819,2.22577 17.92085,5.168 25.9069,9.87748 3.88795,2.3213 7.70902,5.18711 9.82017,9.25656 a 7.2600455,7.2600455 0 0 1 0.92661,4.74768 z"
     opacity="0.1"
     id="path89"
     style="stroke-width:0.955269" />
  <path
     d="m 370.52094,531.11799 -0.13374,0.3439 c -2.13981,5.55011 -6.07551,10.24048 -8.59742,15.64731 -3.18105,6.84928 -3.96437,14.52964 -4.67127,22.05716 -0.61137,6.44807 -1.21319,12.93435 -0.72601,19.40152 1.22275,15.93389 9.00819,31.04625 11.09068,46.67445 a 51.880668,51.880668 0 0 1 0.39166,10.89962 c -0.17195,2.3022 -0.59227,4.77635 -2.1207,6.47672 -1.52843,1.70038 -4.49932,2.36907 -6.14238,0.73556 0.73556,-1.40424 1.48067,-2.79894 2.22578,-4.20318 -4.36558,-3.39121 -10.93783,-0.95527 -16.03897,-3.07597 -2.24488,-0.95527 -4.04079,-2.67475 -5.92267,-4.21274 a 41.535103,41.535103 0 0 0 -30.94117,-9.03684 c -3.11417,0.38211 -6.22835,1.10811 -9.34253,0.82153 -6.29522,-0.58271 -11.39636,-5.10114 -17.00379,-7.9956 a 35.727066,35.727066 0 0 0 -39.5768,5.35906 c -1.33738,1.24185 -3.13328,2.69386 -4.77635,1.91054 a 3.9739197,3.9739197 0 0 1 -1.48066,-1.61441 c -6.25702,-10.68946 -1.65262,-24.474 5.03426,-34.88643 6.68689,-10.41243 15.54223,-20.01289 18.29341,-32.07794 a 11.969522,11.969522 0 0 0 0.35345,-4.4611 c -0.25792,-1.71949 -1.12722,-3.27658 -1.60485,-4.93875 -0.84064,-2.94222 -0.44898,-6.0564 -0.21016,-9.10371 a 84.063685,84.063685 0 0 0 -6.51494,-39.26156 c -1.52843,-3.56316 -3.34344,-7.17407 -3.34344,-11.04291 0,-6.09462 4.36558,-11.148 7.9765,-16.04853 4.15542,-5.63608 7.64215,-11.87399 12.90568,-16.50705 4.98651,-4.40379 12.20834,-7.09765 18.37938,-4.86232 a 114.57498,114.57498 0 0 1 32.05883,-3.12373 c 3.72555,0.17195 7.57529,0.56361 10.84231,2.36907 3.49628,1.91054 6.00864,5.3113 9.44761,7.34602 2.51236,1.49977 5.40682,2.20667 8.13889,3.25747 a 33.635027,33.635027 0 0 1 17.53875,15.68552 c 3.82107,7.40333 4.77634,15.91478 5.61698,24.20652 0.80242,7.80455 1.56664,15.91478 -1.14632,23.2608 z"
     fill="#f9b175"
     id="path91"
     style="stroke-width:0.955269" />
  <path
     d="m 356.3925,588.56788 c 1.22275,15.93389 9.00819,31.04625 11.09068,46.67445 -4.16497,-3.52494 -9.96346,-7.06899 -10.73723,-11.1671 -0.85974,-4.43245 -3.61091,-10.24048 -4.06944,-14.72069 -0.45853,-4.48022 2.6843,-9.95391 -0.61137,-13.02988 -1.60486,-1.49977 2.6652,-1.07945 1.09856,-2.61743 -3.52495,-3.42942 -4.39424,-8.71206 -4.61395,-13.61259 -0.37256,-8.67384 0.726,-17.44321 -0.8693,-25.97377 -0.95527,-5.26353 -2.95178,-10.27869 -4.54708,-15.38938 -1.85322,-5.95133 -3.1906,-12.04595 -4.52798,-18.15012 a 127.16543,127.16543 0 0 1 -2.8658,-16.48794 c -0.41077,-4.77635 -0.21972,-9.83927 1.91053,-14.1953 2.13025,-4.35603 6.43852,-7.89053 11.27218,-7.82366 16.16315,0.21016 13.37377,22.12404 16.92737,32.24989 1.42335,4.03124 3.34344,7.92873 4.11721,12.13192 a 32.15436,32.15436 0 0 1 0.45853,4.9865 c -2.1398,5.55012 -6.07551,10.24049 -8.59742,15.64731 -3.18105,6.84928 -3.96437,14.52965 -4.67127,22.05717 -0.64958,6.46717 -1.2514,12.95345 -0.76422,19.42062 z"
     opacity="0.1"
     id="path93"
     style="stroke-width:0.955269" />
  <path
     d="m 366.90047,514.07599 c 1.42335,4.03124 3.34344,7.92873 4.11721,12.13192 1.28961,7.04033 -0.7069,14.52009 1.46156,21.34071 a 37.179075,37.179075 0 0 1 1.4138,4.46111 c 0.37255,2.16846 -0.0573,4.38468 -0.0573,6.59136 0,3.5536 1.11766,6.99257 2.11114,10.40288 a 185.92403,185.92403 0 0 1 6.63912,35.4978 44.50599,44.50599 0 0 0 1.51888,9.55269 31.724488,31.724488 0 0 1 1.03169,3.22881 16.698105,16.698105 0 0 1 0.1815,4.4229 c -0.25792,4.68081 -0.78332,9.38074 -0.25792,14.04245 0.5254,4.66172 2.22578,9.3903 5.73162,12.51403 -3.13329,0.67824 -6.44807,1.35648 -9.50493,0.35345 -4.29871,-1.40425 -6.87794,-5.73162 -9.06551,-9.66733 -2.77028,-5.02471 -13.29734,-9.55269 -14.38635,-15.19833 -0.85019,-4.42289 -3.60136,-10.23093 -4.05989,-14.7207 -0.45853,-4.48976 2.67475,-9.94435 -0.62093,-13.02031 -1.5953,-1.49978 2.67476,-1.08901 1.09856,-2.61744 -3.51539,-3.42942 -4.38468,-8.71206 -4.6044,-13.62214 -0.37255,-8.66429 0.71646,-17.43366 -0.86929,-25.96422 -0.95527,-5.26353 -2.95178,-10.27869 -4.54708,-15.39893 -1.85322,-5.94178 -3.1906,-12.0364 -4.52798,-18.15012 a 125.83761,125.83761 0 0 1 -2.8658,-16.48794 c -0.41077,-4.77635 -0.22927,-9.84883 1.91053,-14.20486 2.13981,-4.35602 6.44807,-7.88097 11.27218,-7.82365 16.09628,0.28658 13.326,22.21001 16.87961,32.33586 z"
     fill="#f9b175"
     id="path95"
     style="stroke-width:0.955269" />
  <path
     d="m 320.83739,517.81109 c 1.50932,1.76725 3.44852,3.70645 5.73161,3.36255 a 1.2418499,1.2418499 0 0 1 -1.69082,0.40121 3.6300228,3.6300228 0 0 1 -1.27051,-1.46156 l -3.26702,-5.5119 c -0.42987,-0.71645 -3.39121,-4.89098 -4.11721,-2.4837 -0.28658,1.02214 3.87839,4.83366 4.61395,5.6934 z"
     opacity="0.1"
     id="path97"
     style="stroke-width:0.955269" />
  <path
     d="m 319.07969,531.55742 a 7.2791509,7.2791509 0 0 0 -2.13025,-4.77635 11.940864,11.940864 0 0 0 -3.94526,-2.37862 c -3.58226,-1.47111 -7.82365,-2.65565 -11.7116,-2.46459 1.4138,2.06338 5.95133,3.29567 8.22487,4.4611 q 4.83366,2.49325 9.56224,5.15846 z"
     opacity="0.1"
     id="path99"
     style="stroke-width:0.955269" />
  <path
     d="m 329.25331,570.68524 c -0.65914,4.89098 -4.66172,8.59742 -8.71206,11.46323 -4.05034,2.86581 -8.59742,5.3304 -11.24351,9.47627 -1.83412,2.86581 -2.65565,6.19014 -4.21274,9.18014 -1.71949,3.29567 -4.28916,6.06596 -6.34299,9.16103 -2.05383,3.09507 -3.65868,6.79196 -3.0282,10.46019 a 1.2322972,1.2322972 0 0 0 0.43942,0.87885 1.2514026,1.2514026 0 0 0 1.21319,-0.13374 c 4.16498,-2.17801 5.80804,-7.15496 7.55618,-11.46323 a 132.44807,132.44807 0 0 1 6.19015,-12.72418 c 1.03169,-1.91054 2.16846,-3.99303 4.08855,-5.05337 a 35.870357,35.870357 0 0 1 4.03123,-1.40425 13.555269,13.555269 0 0 0 4.97696,-3.90705 32.803943,32.803943 0 0 0 7.64215,-22.26732 c -0.0573,-1.70994 -0.15284,-9.94436 -2.72252,-7.40334 -2.56967,2.54102 0.56361,10.41243 0.12419,13.73677 z"
     opacity="0.1"
     id="path101"
     style="stroke-width:0.955269" />
  <path
     d="m 335.54853,383.09904 c 8.21532,3.58226 15.28431,11.46323 15.02639,20.39499 -0.21972,9.38075 -8.07203,18.21699 -5.36862,27.20607 1.56664,5.21577 6.28567,8.71205 10.02078,12.67642 14.22395,15.05504 14.1953,41.3345 -0.0764,56.36088 -5.46413,5.73162 -12.48536,9.81061 -18.26474,15.28431 -20.37589,19.20091 -21.24519,52.41561 -10.33601,78.19833 a 127.18453,127.18453 0 0 1 -25.42927,2.86581 c -4.00258,0 -8.90311,-0.67824 -10.35512,-4.41335 -1.33737,-3.44852 0.95527,-8.11023 -1.68127,-10.6608 -1.24185,-1.19409 -3.10462,-1.35648 -4.77635,-1.63351 -10.75633,-1.73859 -19.58301,-10.32646 -23.61425,-20.44276 -4.03123,-10.1163 -3.82108,-21.50311 -1.50932,-32.14481 1.64306,-7.68991 4.21273,-16.1536 0.40121,-23.03154 -4.77635,-8.65474 -18.51312,-12.30386 -18.30296,-22.20045 0.17195,-8.11024 9.73419,-12.0555 15.16012,-18.08325 10.01122,-11.10022 5.24443,-28.32373 5.22533,-43.28324 0,-13.16361 4.60439,-26.74754 14.40545,-35.51691 14.57741,-13.15406 42.65277,-8.884 59.47506,-1.57619 z"
     fill="#a26565"
     id="path103"
     style="stroke-width:0.955269" />
  <g
     opacity="0.1"
     id="g115"
     transform="matrix(0.95526915,0,0,0.95526915,0.21084973,187.45036)">
    <path
       d="m 308.12,401.78 c -4.39,-7.92 -15.92,-11.84 -18.6,-19.63 a 11.09,11.09 0 0 0 -2.16,6.26 c -0.22,10.36 14.14,14.18 19.16,23.25 a 18.89,18.89 0 0 1 2,10.42 c 1.58,-6.96 2.97,-14.22 -0.4,-20.3 z"
       transform="translate(-34.96,-80.93)"
       id="path105" />
    <path
       d="m 397.26,322.75 c 1.8,-5.25 4.41,-10.55 4.54,-16 a 15,15 0 0 0 -0.05,-1.77 c -2.01,6.02 -5.09,11.86 -4.49,17.77 z"
       transform="translate(-34.96,-80.93)"
       id="path107" />
    <path
       d="m 309.84,350.72 c 3.44,-10.87 0.47,-24.35 0.46,-36.41 0,-1.46 0.06,-2.93 0.17,-4.39 a 57.74,57.74 0 0 0 -1.78,14.26 c 0.02,8.61 1.53,17.95 1.15,26.54 z"
       transform="translate(-34.96,-80.93)"
       id="path109" />
    <path
       d="m 408.19,397.61 c -5.72,6 -13.07,10.27 -19.12,16 -10.8,10.17 -16.35,24.1 -17.74,38.87 2.58,-11 7.79,-21.13 16.14,-29 6,-5.7 13.4,-9.95 19.12,-16 a 42.49,42.49 0 0 0 11.15,-27.06 40.61,40.61 0 0 1 -9.55,17.19 z"
       transform="translate(-34.96,-80.93)"
       id="path111" />
    <path
       d="m 351.63,498.44 c -4.19,0 -9.32,-0.72 -10.84,-4.63 -1.4,-3.6 1,-8.48 -1.76,-11.16 -1.3,-1.25 -3.26,-1.42 -5,-1.71 -11.25,-1.81 -20.49,-10.81 -24.71,-21.39 -3.11,-7.82 -3.78,-16.35 -3,-24.77 -0.08,0.33 -0.15,0.66 -0.22,1 -2.38,11.14 -2.63,23.07 1.58,33.66 4.21,10.59 13.46,19.58 24.71,21.39 1.78,0.29 3.74,0.47 5,1.71 2.79,2.68 0.36,7.56 1.76,11.16 1.52,3.91 6.65,4.68 10.84,4.63 a 133.23,133.23 0 0 0 26.62,-3 89.38,89.38 0 0 1 -3.23,-8.93 132.74,132.74 0 0 1 -21.75,2.04 z"
       transform="translate(-34.96,-80.93)"
       id="path113" />
  </g>
  <path
     d="m 334.001,544.6255 c 2.35951,1.7768 4.91963,-4.99606 3.45807,-6.68689 -0.39166,0.43943 -3.82108,6.43852 -3.45807,6.68689 z"
     opacity="0.1"
     id="path117"
     style="stroke-width:0.955269" />
  <path
     d="m 344.05998,667.22474 c 2.77983,-0.95527 5.73161,-1.91054 7.54663,-4.20318 1.49977,-1.84367 2.73207,-9.16104 -0.43943,-5.6552 -2.69386,3.0091 -3.96436,6.97347 -7.1072,9.85838 z"
     opacity="0.1"
     id="path119"
     style="stroke-width:0.955269" />
  <path
     d="m 372.3646,659.55393 c -0.33434,2.25443 -0.95526,4.59484 -2.55056,6.2188 -0.29614,0.30569 -0.95527,0.49674 -1.04125,0.086 a 24.158757,24.158757 0 0 0 4.92919,-3.47718 c 3.22881,-3.20016 3.66824,-11.08113 -1.2514,-13.17317 -0.0478,3.45808 0.43942,6.83018 -0.086,10.34557 z"
     opacity="0.1"
     id="path121"
     style="stroke-width:0.955269" />
  <path
     d="m 406.34353,645.34908 c 0,0 -27.11054,-10.65125 -36.9116,-9.55269 -9.80106,1.09855 11.10023,16.54526 11.10023,16.54526 l 12.49492,8.42547 c 0,0 7.64215,-2.86581 8.14844,-3.08552 0.5063,-0.21971 5.16801,-12.33252 5.16801,-12.33252 z"
     fill="#454b69"
     id="path123"
     style="stroke-width:0.955269" />
  <path
     d="m 219.80812,531.07978 c 0,0 20.36634,-11.80713 47.24761,2.86581 26.88128,14.67293 31.36149,101.01971 31.36149,101.01971 0,0 -10.99515,87.97074 31.3997,68.39727 0,0 77.3768,-24.02502 85.12403,-18.73283 0,0 7.33647,0 -7.32691,3.25747 -14.66338,3.25747 -71.31085,21.20698 -71.31085,21.20698 0,0 -18.31251,6.4003 -26.06929,0 -7.75679,-6.40031 -29.73753,0.82153 -32.59378,-43.17817 a 765.17059,765.17059 0 0 0 -10.18317,-82.6881 l -7.55618,-22.40106 z"
     fill="#565661"
     id="path125"
     style="stroke-width:0.955269" />
  <path
     d="m 217.36263,667.12921 c 0,0 8.96043,-89.20303 -5.73161,-121.38605 -12.7815,-28.0467 36.64412,-14.93085 49.54026,-11.10978 a 9.3902957,9.3902957 0 0 1 4.94829,3.5345 c 7.64215,10.74678 35.05838,53.81986 26.9768,111.45125 0,0 -3.25747,51.32661 17.10887,59.4655 l -62.75163,-20.21349 c -5.09158,-1.64306 -10.25959,-3.0091 -15.47536,-4.19363 -6.64867,-1.50933 -17.48142,-5.79849 -14.61562,-17.5483 z"
     fill="#ffffff"
     id="path127"
     style="stroke-width:0.955269" />
  <polygon
     points="703.06,676.47 708.65,561.83 709.03,555.31 701.78,552.76 701.3,559.69 694.53,676.47 "
     fill="#565661"
     id="polygon129"
     transform="matrix(0.95526915,0,0,0.95526915,0.21084973,187.45036)" />
  <polygon
     points="701.78,552.76 701.3,559.69 708.65,561.83 709.03,555.31 "
     opacity="0.1"
     id="polygon131"
     transform="matrix(0.95526915,0,0,0.95526915,0.21084973,187.45036)" />
  <path
     d="m 595.63966,791.37152 a 18.369826,18.369826 0 0 1 -1.14632,4.37513 7.7281274,7.7281274 0 0 1 -3.48673,4.35603 9.2087946,9.2087946 0 0 1 -3.52495,0.69735 c -4.49931,0.26747 -9.25655,0.2006 -13.12539,-2.09204 a 23.881729,23.881729 0 0 1 -4.49932,-3.75421 205.28734,205.28734 0 0 1 -23.61425,-28.08491 c -1.17499,-1.69083 -2.38818,-3.68734 -1.86278,-5.73162 a 89.040637,89.040637 0 0 0 25.57256,-11.70205 12.342077,12.342077 0 0 1 3.59181,-1.91054 19.516149,19.516149 0 0 1 6.7442,-0.24837 c 2.16846,0.35345 2.26399,0.42032 3.09507,2.86581 1.37559,4.13632 1.14632,8.59742 2.69386,12.73374 a 39.452616,39.452616 0 0 0 3.57271,6.53404 c 3.99302,6.67733 7.05943,14.5583 5.98953,21.96164 z"
     fill="#a26565"
     id="path133"
     style="stroke-width:0.955269" />
  <path
     d="m 595.63966,791.37152 a 18.369826,18.369826 0 0 1 -1.14632,4.37513 7.7281274,7.7281274 0 0 1 -3.48673,4.35603 9.2087946,9.2087946 0 0 1 -3.52495,0.69735 c -4.49931,0.26747 -9.25655,0.2006 -13.12539,-2.09204 a 23.881729,23.881729 0 0 1 -4.49932,-3.75421 205.28734,205.28734 0 0 1 -23.61425,-28.08491 c -1.17499,-1.69083 -2.38818,-3.68734 -1.86278,-5.73162 a 88.65853,88.65853 0 0 0 8.75027,-2.92312 l 0.14329,0.10508 c 2.93267,2.09204 5.06292,5.09158 7.13586,8.03381 l 6.68688,9.4094 a 27.702805,27.702805 0 0 0 4.19363,5.06293 28.065808,28.065808 0 0 0 6.48628,3.8975 c 3.14284,1.51887 6.28567,3.03775 9.55269,4.2605 2.11115,0.85019 5.68385,1.18453 8.31084,2.38817 z"
     opacity="0.1"
     id="path135"
     style="stroke-width:0.955269" />
  <path
     d="m 601.8107,689.35833 a 28.753601,28.753601 0 0 1 -2.38817,4.55663 195.02775,195.02775 0 0 0 -20.36634,47.65838 c -1.31827,-0.29614 -2.06338,1.49977 -2.05383,2.86581 0.01,1.36603 0,3.08551 -1.26095,3.58225 -0.37256,0.1433 -0.79288,0.1433 -1.15588,0.30569 -0.80242,0.363 -1.03169,1.38514 -1.14632,2.26399 l -1.12722,8.27263 c -0.39166,2.86581 -0.73556,5.97043 0.66869,8.5019 a 13.59348,13.59348 0 0 0 3.69689,3.82107 l 18.64685,14.71115 c 0.76422,0.60182 1.70994,1.24185 2.62699,0.9075 2.09204,-0.76421 0.23882,-4.50887 1.91054,-6.02775 1.10812,-1.04124 2.86581,-0.25792 4.40379,-0.3821 2.00607,-0.15285 3.52495,-1.99652 4.03124,-3.93571 a 18.713723,18.713723 0 0 0 0.10508,-5.97999 5.4259288,5.4259288 0 0 1 0.30569,-2.6843 6.5149356,6.5149356 0 0 1 2.28309,-2.18757 24.512206,24.512206 0 0 0 10.03988,-20.67202 11.46323,11.46323 0 0 1 0.13374,-3.65869 9.6386657,9.6386657 0 0 1 1.72903,-3.01865 c 6.77286,-9.16103 12.4185,-19.10538 18.02593,-29.03063 3.22881,-5.73161 6.51494,-11.5492 7.64215,-18.00682 a 1.671721,1.671721 0 0 0 -1.37558,-2.29264 64.958302,64.958302 0 0 0 -8.54011,-2.04428 c -8.77892,-1.7768 -17.25216,-4.51842 -25.79227,-7.15497 -8.5401,-2.63654 -8.47323,2.73207 -11.04291,9.62912 z"
     fill="#454b69"
     id="path137"
     style="stroke-width:0.955269" />
  <polygon
     points="729.07,556.59 762.76,557.45 822.88,707.11 835.67,707.11 772.44,532.2 770.01,525.46 675.77,522.23 652.28,535.4 651.98,536.16 587.5,700.72 601.58,702.42 666.39,555.31 683.87,554.03 714.58,562.99 720.54,738.14 734.61,738.14 "
     fill="#565661"
     id="polygon139"
     transform="matrix(0.95526915,0,0,0.95526915,0.21084973,187.45036)" />
  <path
     d="m 623.02723,699.62747 c 19.3442,5.82714 39.42396,12.18923 39.42396,12.18923 0,0 18.31251,6.39075 26.06929,0 a 11.721152,11.721152 0 0 1 3.23837,-1.78635 15.952995,15.952995 0 0 1 -3.23837,1.78635 l 49.57847,-15.98165 -2.29264,-6.42896 -90.02457,-3.08552 -22.43927,12.5809 z"
     opacity="0.1"
     id="path141"
     style="stroke-width:0.955269" />
  <path
     d="m 714.58978,671.89601 -36.65368,-8.14845 c 0,0 -87.57908,16.29689 -94.09401,22.81183 0,0 70.05944,14.25261 77.79712,19.10538 7.73768,4.85277 53.7721,10.22138 52.95057,-33.76876 z"
     fill="#ffffff"
     id="path143"
     style="stroke-width:0.955269" />
  <path
     d="m 578.57856,802.8443 c -2.20668,4.20319 -7.64216,5.38772 -12.4185,5.45459 a 52.434724,52.434724 0 0 1 -19.41107,-3.46763 c -3.5345,-1.35648 -6.9257,-3.10462 -10.57483,-4.0981 -5.43548,-1.49022 -11.46323,-1.36604 -16.23958,-4.35603 a 19.105383,19.105383 0 0 1 -6.10417,-6.62002 c -0.27702,-0.46808 -0.5445,-0.95527 -0.79287,-1.45201 -2.28309,-4.442 -3.34344,-9.61 -2.07293,-14.40545 1.2705,-4.79545 5.88445,-10.07809 11.23396,-10.00167 6.35254,0.0955 13.92783,3.10462 20.06065,4.66171 7.64216,1.91054 15.28431,4.11721 22.03806,8.158 5.6552,3.40076 10.65125,8.28218 13.31645,14.24306 a 24.139651,24.139651 0 0 1 1.26096,3.5536 c 0.83108,2.75118 1.02214,5.81759 -0.29613,8.32995 z"
     fill="#a26565"
     id="path145"
     style="stroke-width:0.955269" />
  <path
     d="m 578.57856,802.8443 c -2.20668,4.20319 -7.64216,5.38772 -12.4185,5.45459 a 52.434724,52.434724 0 0 1 -19.41107,-3.46763 c -3.5345,-1.35648 -6.9257,-3.10462 -10.57483,-4.0981 -5.43548,-1.49022 -11.46323,-1.36604 -16.23958,-4.35603 a 19.105383,19.105383 0 0 1 -6.10417,-6.62002 c -0.27702,-0.46808 -0.5445,-0.95527 -0.79287,-1.45201 0.95527,0.0764 1.83412,0.17195 2.31175,0.21972 5.86535,0.56361 11.46323,2.70341 17.06111,4.31781 a 95.832601,95.832601 0 0 0 23.88173,3.72555 c 5.73161,0.1624 11.7116,-0.25792 16.71721,-3.05686 a 43.856407,43.856407 0 0 1 4.64261,-2.55057 24.139651,24.139651 0 0 1 1.26095,3.5536 c 0.79287,2.75118 0.98393,5.81759 -0.33434,8.32995 z"
     opacity="0.1"
     id="path147"
     style="stroke-width:0.955269" />
  <path
     d="m 619.62647,621.20943 c -12.4185,-2.03473 -25.06626,-2.53147 -37.65671,-3.02821 l -15.39894,-0.61137 a 6.9830175,6.9830175 0 0 0 -3.23836,0.39166 21.101896,21.101896 0 0 0 -2.53146,1.91054 c -1.54754,1.05079 -3.52495,1.16543 -5.38772,1.27051 a 268.21092,268.21092 0 0 0 -39.31888,5.10113 c -6.68688,1.36604 -13.63169,3.15239 -18.65641,7.76634 -5.31129,4.88143 -7.64215,12.32297 -7.82365,19.5257 -0.1815,7.20273 1.70993,14.28128 3.70644,21.19743 a 96.568158,96.568158 0 0 1 4.17453,25.65853 48.002275,48.002275 0 0 0 0.27703,7.23138 34.599849,34.599849 0 0 0 2.01562,6.68689 l 7.03078,18.77104 c 0.62092,1.64306 1.2323,3.27657 1.91054,4.88142 0.67824,1.60485 1.32782,2.86581 1.91053,4.37513 0.85975,2.06338 1.53799,4.20319 2.21623,6.33344 l 4.68082,14.70159 0.61137,1.91054 c 1.69083,5.29219 3.41986,10.67991 6.61046,15.22699 3.1906,4.54708 8.12934,8.21531 13.67946,8.49234 a 41.898105,41.898105 0 0 1 5.36861,0.14329 21.703715,21.703715 0 0 1 4.40379,1.5953 33.596816,33.596816 0 0 0 13.15406,2.56968 c 4.15542,0 8.76937,-1.15588 11.0238,-4.65217 1.24185,-1.91053 1.56664,-4.2605 1.91054,-6.51493 0.60182,-4.52798 1.18453,-9.25656 -0.35345,-13.55527 -0.95527,-2.56967 -2.56012,-4.77635 -3.66823,-7.30781 -1.54754,-3.44852 -2.05383,-7.26004 -3.05686,-10.89962 a 41.63063,41.63063 0 0 0 -12.70508,-20.2135 199.25004,199.25004 0 0 1 -4.77635,-26.15526 23.012434,23.012434 0 0 0 -1.15587,-5.73162 c -1.11767,-2.86581 -3.38166,-5.18711 -4.32737,-8.11023 -0.8884,-2.71297 -0.62093,-5.84625 -2.23533,-8.18666 13.44063,3.69689 26.74753,2.86581 40.70401,2.64609 a 111.21243,111.21243 0 0 0 13.37377,-0.76421 42.031843,42.031843 0 0 1 6.26657,-0.66869 c 4.31781,0 8.36816,1.91054 12.33252,3.59181 11.20531,4.77635 23.01244,8.53056 35.18257,9.0464 12.56179,0.5254 24.98028,-2.42638 37.25549,-5.34951 5.39727,-1.28961 11.0047,-2.6843 15.28431,-6.22835 4.2796,-3.54405 6.68688,-9.9348 4.05034,-14.79712 -2.00607,-3.65868 -6.16149,-5.45459 -10.03988,-6.98302 -10.73722,-4.24139 -21.53177,-8.37771 -31.87733,-13.5075 -15.80015,-7.69947 -27.61683,-24.89432 -44.92631,-27.76012 z"
     fill="#454b69"
     id="path149"
     style="stroke-width:0.955269" />
  <path
     d="m 597.48333,577.99305 c -1.49977,3.24791 -4.02168,5.90356 -5.88446,8.96042 a 22.706748,22.706748 0 0 0 -2.8658,16.8605 19.181805,19.181805 0 0 0 10.74678,13.07764 26.967248,26.967248 0 0 0 7.45109,1.7959 c 3.36255,0.41077 6.94481,0.49674 9.9157,-1.12721 a 14.48188,14.48188 0 0 0 5.28264,-5.52146 c 2.56967,-4.29871 4.03123,-9.14192 5.36861,-13.96603 2.47415,-8.90311 4.58529,-18.03549 4.27961,-27.27294 -0.10508,-3.18104 -0.73556,-6.7633 -3.3721,-8.59742 a 11.339045,11.339045 0 0 0 -4.43245,-1.45201 l -12.6,-2.25443 c -2.43594,-0.43943 -6.68689,-2.22578 -8.79803,-0.46809 -2.11115,1.7577 -2.27354,6.95436 -2.63655,9.3903 -0.57316,3.60136 -0.92661,7.26004 -2.45504,10.57483 z"
     fill="#a1616a"
     id="path151"
     style="fill:#fdc2cc;fill-opacity:1;stroke-width:0.955269" />
  <path
     d="m 750.64164,541.04324 -3.29568,27.62638 a 127.0508,127.0508 0 0 0 -1.17498,14.86399 c 0,2.77028 0.086,5.84625 -1.74815,7.91918 a 7.2218348,7.2218348 0 0 1 -3.28612,1.97741 c -4.00258,1.24185 -8.36816,0.13374 -12.18924,-1.5762 -2.23533,-0.95526 -4.51842,-2.34041 -5.53101,-4.56618 a 11.348598,11.348598 0 0 1 -0.71645,-4.84322 c 0,-16.47839 1.55709,-33.66368 10.16407,-47.70614 a 10.402881,10.402881 0 0 1 3.0282,-3.49628 c 2.38817,-1.52843 5.5119,-1.09856 8.21531,-0.26748 1.66217,0.50629 6.15194,1.0699 7.21229,2.55057 1.06035,1.48067 -0.44898,5.61698 -0.67824,7.51797 z"
     fill="#a1616a"
     id="path153"
     style="stroke-width:0.955269" />
  <circle
     cx="663.20581"
     cy="406.7515"
     r="34.38969"
     fill="#a1616a"
     id="circle155"
     style="fill:#fdc2cc;fill-opacity:1;stroke-width:0.955269" />
  <path
     d="m 654.00661,458.00169 a 17.739348,17.739348 0 0 1 -2.13025,7.64215 q 26.33677,-4.01213 52.5398,-8.94132 a 24.674602,24.674602 0 0 1 -12.18923,-14.32903 40.465201,40.465201 0 0 1 -1.54754,-10.21183 118.04261,118.04261 0 0 1 0.31524,-16.44018 c -6.11372,0.64003 -11.90265,2.93267 -17.7298,4.90053 a 174.81425,174.81425 0 0 1 -17.85398,4.99606 c -2.91357,0.64958 -5.84624,1.20364 -8.78847,1.71948 -3.43897,0.61137 -5.09159,0.60182 -2.70341,3.62047 6.40985,8.06247 10.98559,16.25868 10.08764,27.04367 z"
     fill="#a1616a"
     id="path157"
     style="fill:#fdc2cc;fill-opacity:1;stroke-width:0.955269" />
  <path
     d="m 664.57189,453.40685 c -4.53753,0.67824 -9.29477,1.44245 -12.91524,4.25094 a 48.718727,48.718727 0 0 0 -3.92616,3.77332 c -7.19318,6.98301 -17.34769,9.79151 -26.07885,14.72069 a 11.46323,11.46323 0 0 0 -3.70644,2.91358 c -0.95527,1.32782 -1.44246,3.01865 -2.44549,4.33692 -1.16543,1.52843 -3.0091,2.4837 -3.9166,4.17452 -0.90751,1.69083 -0.7069,3.48674 -0.80243,5.28264 -0.21971,3.94526 -1.70993,7.68992 -2.86581,11.46323 -5.30174,18.06414 -2.39772,38.21077 -10.42198,55.27188 a 7.7663382,7.7663382 0 0 0 4.22229,4.41334 23.977256,23.977256 0 0 0 6.26656,1.34693 l 17.77756,2.20667 c 2.54102,0.31524 5.23487,0.61137 7.55618,-0.44898 a 88.782715,88.782715 0 0 0 -4.48021,18.08325 90.062775,90.062775 0 0 1 -2.00607,11.19575 c -2.44549,8.40637 -8.59742,15.40849 -15.88612,20.19439 a 5.8749053,5.8749053 0 0 0 -2.24489,2.07294 c -0.95527,1.91053 0.45853,4.05034 1.46156,5.92267 2.91358,5.42592 2.51236,11.94086 2.47415,18.09279 -0.0382,6.15194 0.58272,12.90569 4.88143,17.31903 2.54101,2.60789 6.01819,4.02169 9.39985,5.36862 l 27.80788,11.10978 a 96.912055,96.912055 0 0 0 14.15709,4.77634 c 7.32691,1.67172 14.94041,1.60485 22.45838,1.28006 q 7.4511,-0.31524 14.88309,-0.95527 a 11.577862,11.577862 0 0 0 5.62654,-1.48066 10.507961,10.507961 0 0 0 3.29567,-4.47066 c 3.86884,-8.41593 5.16801,-18.23609 11.1671,-25.28598 4.11721,-4.84321 10.50796,-8.71205 10.97604,-15.04549 0.21971,-3.15239 -1.18453,-6.2188 -1.20364,-9.38074 0,-3.88795 2.03473,-7.58484 1.91054,-11.46323 -0.25792,-6.31433 -6.20925,-11.12889 -7.15496,-17.37635 -2.40728,-15.83836 5.63608,-31.65762 10.57483,-46.89416 0.8884,-2.72252 2.03472,-5.73161 4.65216,-6.89704 2.61743,-1.16543 6.30477,-0.55406 7.24094,-3.13328 2.35951,-6.47673 2.92312,-14.07112 2.61743,-20.95861 -0.17194,-3.98347 -1.58574,-7.88097 -1.42335,-11.874 0.11464,-2.80849 1.01259,-5.54056 1.25141,-8.3395 0.363,-4.23184 -0.75467,-8.43502 -1.91054,-12.52357 a 19.621228,19.621228 0 0 0 -1.49022,-4.22229 20.060652,20.060652 0 0 0 -2.4837,-3.41031 l -4.65216,-5.53101 c -2.17802,-2.58878 -4.48022,-5.27309 -7.64216,-6.58181 -1.02213,-2.53146 -4.28915,-4.2796 -6.62956,-5.6743 a 67.938742,67.938742 0 0 0 -7.29826,-3.58226 l -26.30811,-11.61607 a 10.775436,10.775436 0 0 0 -3.12373,-1.01258 10.1163,10.1163 0 0 0 -4.64261,0.95527 c -8.02426,3.18104 -16.40197,6.35254 -24.99939,7.6326 z"
     fill="#f9b175"
     id="path159"
     style="stroke-width:0.955269" />
  <path
     d="m 636.70668,412.73149 c -1.01258,-3.56316 -3.60136,-6.63912 -3.99302,-10.32646 -0.35345,-3.27658 1.08901,-6.44807 1.91054,-9.63867 0.82153,-3.1906 0.79287,-7.0881 -1.73859,-9.20879 -0.42032,-0.36301 -0.95527,-0.6878 -1.10811,-1.22275 -0.30569,-0.95527 0.65913,-1.82456 0.95526,-2.78938 0.54451,-1.91054 -1.81501,-4.02169 -0.95526,-5.8558 0.48718,-1.00304 1.70993,-1.35649 2.77983,-1.67173 4.08855,-1.21319 8.23442,-3.90705 9.12282,-8.08157 3.20015,1.33737 6.61046,-1.17498 9.0655,-3.61092 2.45504,-2.43594 5.4737,-5.21577 8.85535,-4.48021 l -0.75466,1.53798 a 24.45489,24.45489 0 0 1 16.1727,-0.1815 h -1.60485 a 22.18135,22.18135 0 0 1 12.79105,4.32737 c -0.41076,0 -0.44897,0.61137 -0.28658,0.95527 1.33738,3.12373 4.77635,4.77634 8.09113,5.55011 1.99652,0.47764 4.16498,0.82153 5.62654,2.25444 1.46156,1.4329 1.49022,4.42289 -0.43943,5.11069 a 50.247157,50.247157 0 0 1 11.09068,6.01819 c 0.95527,0.69735 2.03472,1.64307 1.91054,2.86581 a 9.3234269,9.3234269 0 0 1 -0.59227,1.78635 6.1805914,6.1805914 0 0 0 0.20061,3.05687 l 1.06035,4.37513 c 1.16542,4.86232 2.08248,10.71812 -1.46157,14.24306 a 13.077635,13.077635 0 0 1 -2.30219,15.43715 6.3620925,6.3620925 0 0 1 -4.77635,8.22487 c 1.17498,1.83411 0.0955,4.45155 -1.7577,5.59788 -1.85322,1.14632 -4.18407,1.15587 -6.34298,0.95526 -2.15891,-0.2006 -4.34648,-0.68779 -6.50539,-0.363 -3.14283,0.48719 -6.2188,2.62699 -9.247,1.67172 a 20.757999,20.757999 0 0 1 -3.23836,-1.73859 c -2.1207,-1.13677 -4.5853,-1.39469 -6.93526,-1.91054 a 32.039727,32.039727 0 0 1 -11.2053,-4.77634 13.134951,13.134951 0 0 1 -5.14891,-5.73162 c -2.10159,-5.31129 1.43291,-12.2752 -2.28309,-16.60257 -2.17801,-2.52191 -6.49583,-2.56013 -8.93177,-0.40122 -1.21319,1.07946 -1.37558,3.353 -2.63654,4.16498 a 16.669447,16.669447 0 0 1 -5.38772,0.45853 z"
     fill="#464353"
     id="path161"
     style="stroke-width:0.955269" />
  <path
     d="m 589.97492,686.64536 a 15.761941,15.761941 0 0 1 -3.46763,-3.82107 7.1263079,7.1263079 0 0 1 -1.0508,-4.93875 14.128431,14.128431 0 0 0 3.716,12.15103 c 2.39773,2.45504 6.89704,4.86232 10.40288,4.02168 -0.49674,-2.80849 -7.37468,-5.52146 -9.60045,-7.41289 z"
     opacity="0.1"
     id="path163"
     style="stroke-width:0.955269" />
  <path
     d="m 778.94626,532.99032 c 0,0 -20.36634,-11.80713 -47.24761,2.86581 -26.88128,14.67293 -31.36149,101.01971 -31.36149,101.01971 0,0 10.99515,87.97074 -31.39969,68.39727 0,0 -77.37681,-24.02502 -85.12404,-18.73283 0,0 -7.33647,0 7.32692,3.25747 14.66338,3.25747 71.31084,21.20698 71.31084,21.20698 0,0 18.31251,6.4003 26.06929,0 7.75679,-6.40031 29.73753,0.82153 32.59379,-43.17817 a 765.17059,765.17059 0 0 1 10.18317,-82.6881 l 7.55617,-22.40106 z"
     fill="#565661"
     id="path165"
     style="stroke-width:0.955269" />
  <path
     d="m 781.39175,669.03975 c 0,0 -8.96043,-89.20303 5.73161,-121.38605 12.78151,-28.0467 -36.64412,-14.93086 -49.54025,-11.10978 a 9.3902957,9.3902957 0 0 0 -4.9483,3.5345 c -7.64215,10.74677 -35.05838,53.81986 -26.9768,111.45125 0,0 3.25747,51.32661 -17.10887,59.4655 l 62.75163,-20.21349 c 5.09159,-1.64307 10.25959,-3.0091 15.47536,-4.19363 6.64867,-1.50933 17.48143,-5.79849 14.61562,-17.5483 z"
     fill="#ffffff"
     id="path167"
     style="stroke-width:0.955269" />
  <ellipse
     cx="945.89862"
     cy="827.54755"
     rx="93.081429"
     ry="14.949962"
     fill="#f9b175"
     opacity="0.1"
     id="ellipse169"
     style="stroke-width:0.955269" />
  <rect
     x="942.89911"
     y="541.14832"
     width="5.9895377"
     height="134.85535"
     fill="#535461"
     id="rect171"
     style="stroke-width:0.955269" />
  <path
     d="m 986.5358,675.5929 -0.37256,6.07551 -0.53495,8.59742 -0.21971,3.57271 -0.5254,8.59742 -0.22926,3.57271 -0.53495,8.59742 -6.0373,97.50432 a 16.526156,16.526156 0 0 1 -16.48795,15.43715 H 930.19403 A 16.507051,16.507051 0 0 1 913.72518,812.0531 l -6.0564,-97.51388 -0.5254,-8.59742 -0.21971,-3.57271 -0.5445,-8.59742 -0.21972,-3.57271 -0.52539,-8.59742 -0.38211,-6.07551 a 8.5974224,8.5974224 0 0 1 8.5401,-9.08461 h 64.2132 a 8.5974224,8.5974224 0 0 1 8.53055,9.15148 z"
     fill="#565661"
     id="path173"
     style="stroke-width:0.955269" />
  <polygon
     points="947.82,517.36 1032.12,517.36 1031.56,526.33 948.38,526.33 "
     fill="#9d9cb5"
     id="polygon175"
     transform="matrix(0.95526915,0,0,0.95526915,0.21084973,187.45036)" />
  <polygon
     points="948.61,530.08 1031.33,530.08 1030.78,539.06 949.17,539.06 "
     fill="#9d9cb5"
     id="polygon177"
     transform="matrix(0.95526915,0,0,0.95526915,0.21084973,187.45036)" />
  <polygon
     points="949.4,542.8 1030.54,542.8 1029.98,551.77 949.96,551.77 "
     fill="#9d9cb5"
     id="polygon179"
     transform="matrix(0.95526915,0,0,0.95526915,0.21084973,187.45036)" />
  <path
     d="m 896.48258,591.69161 c 34.88643,25.23821 49.41607,64.70993 49.41607,64.70993 0,0 -42.03184,-1.44246 -76.92782,-26.68067 -34.89599,-25.23821 -49.40653,-64.70038 -49.40653,-64.70038 0,0 42.0414,1.44246 76.91828,26.67112 z"
     fill="#f9b175"
     id="path181"
     style="stroke-width:0.955269" />
  <path
     d="m 819.5643,565.02049 c 0,0 43.62715,24.21608 57.63139,44.26718 14.00425,20.0511 68.70296,47.11387 68.70296,47.11387"
     fill="none"
     stroke="#535461"
     stroke-miterlimit="10"
     stroke-width="1.91054"
     id="path183" />
  <path
     d="m 918.99827,540.85218 c 18.99075,13.72722 26.90038,35.22078 26.90038,35.22078 0,0 -22.92646,-0.79288 -41.86945,-14.52009 -18.94298,-13.72722 -26.84306,-35.22078 -26.84306,-35.22078 0,0 22.83093,0.78332 41.81213,14.52009 z"
     fill="#f9b175"
     id="path185"
     style="stroke-width:0.955269" />
  <path
     d="m 877.18614,526.33209 c 0,0 23.74799,13.18272 31.36149,24.09189 7.61349,10.90917 37.39878,25.64898 37.39878,25.64898"
     fill="none"
     stroke="#535461"
     stroke-miterlimit="10"
     stroke-width="1.91054"
     id="path187" />
  <path
     d="m 973.48682,574.9744 c -21.80879,23.9677 -26.42274,55.29098 -26.42274,55.29098 0,0 30.75011,-7.54663 52.5398,-31.52389 21.78972,-23.97725 26.42272,-55.29097 26.42272,-55.29097 0,0 -30.73098,7.55618 -52.53978,31.52388 z"
     fill="#f9b175"
     id="path189"
     style="stroke-width:0.955269" />
  <path
     d="m 1026.0457,543.46007 c 0,0 -28.40967,24.56952 -35.63151,41.49689 -7.22183,16.92737 -43.35011,45.30842 -43.35011,45.30842"
     fill="none"
     stroke="#535461"
     stroke-miterlimit="10"
     stroke-width="1.91054"
     id="path191" />
  <path
     d="m 532.27666,517.27614 v 2.17802 h -64.58575 v -1.76725 a 21.703715,21.703715 0 0 0 4.98651,-2.65565 21.216528,21.216528 0 0 0 8.8649,-17.25216 20.9395,20.9395 0 0 0 -0.65914,-5.22532 21.235633,21.235633 0 0 0 -11.7307,-14.07112 h 62.68476 a 21.235633,21.235633 0 0 0 -11.73071,14.07112 20.9395,20.9395 0 0 0 -0.64958,5.22532 21.206975,21.206975 0 0 0 8.85534,17.25216 21.847005,21.847005 0 0 0 3.96437,2.24488 z"
     fill="#dfe6f5"
     id="path193"
     style="fill:#cfd5e2;fill-opacity:1;stroke-width:0.955269" />
  <path
     d="m 531.83724,478.48266 a 21.235633,21.235633 0 0 0 -11.73071,14.07112 h -39.22335 a 21.235633,21.235633 0 0 0 -11.7307,-14.07112 z"
     opacity="0.1"
     id="path195"
     style="stroke-width:0.955269" />
  <path
     d="m 393.74353,467.35378 v 12.26565 c 0,6.76331 4.94829,12.25611 11.06202,12.25611 h 190.01258 c 6.11372,0 11.07157,-5.4928 11.07157,-12.25611 v -12.26565 z"
     fill="#dfe6f5"
     id="path197"
     style="fill:#cfd5e2;fill-opacity:1;stroke-width:0.955269" />
  <path
     d="m 532.27666,517.27614 v 2.17802 h -64.58575 v -1.76725 a 21.703715,21.703715 0 0 0 4.98651,-2.65565 h 55.63487 a 21.847005,21.847005 0 0 0 3.96437,2.24488 z"
     opacity="0.1"
     id="path199"
     style="stroke-width:0.955269" />
  <rect
     x="446.35019"
     y="515.70947"
     width="107.26717"
     height="6.4671721"
     rx="3.2383626"
     fill="#dfe6f5"
     id="rect201"
     style="fill:#cfd5e2;fill-opacity:1;stroke-width:0.955269" />
  <path
     d="M 605.8897,333.01428 A 11.062017,11.062017 0 0 0 594.81813,321.95226 H 404.80555 a 11.052464,11.052464 0 0 0 -11.06202,11.06202 V 469.74195 H 605.8897 Z"
     fill="#474157"
     id="path203"
     style="stroke-width:0.955269" />
  <path
     d="m 600.10077,337.95302 v 117.4981 a 5.4450342,5.4450342 0 0 1 -5.44503,5.45459 H 404.97749 a 5.4450342,5.4450342 0 0 1 -5.44503,-5.45459 v -117.4981 a 5.3686126,5.3686126 0 0 1 0.726,-2.72252 5.4450342,5.4450342 0 0 1 4.71903,-2.72252 h 189.67825 a 5.4450342,5.4450342 0 0 1 5.44503,5.44504 z"
     fill="#4c4c78"
     id="path205"
     style="stroke-width:0.955269" />
  <circle
     cx="499.81662"
     cy="327.22534"
     r="2.5505688"
     fill="#ffffff"
     id="circle207"
     style="stroke-width:0.955269" />
  <circle
     cx="499.81662"
     cy="480.12573"
     r="6.2952237"
     fill="#ffffff"
     id="circle209"
     style="stroke-width:0.955269" />
  <path
     d="M 600.10077,337.95302 H 399.55156 a 5.4450342,5.4450342 0 0 1 5.44504,-5.44504 h 189.65914 a 5.4450342,5.4450342 0 0 1 5.44503,5.44504 z"
     fill="#c8cad7"
     id="path211"
     style="stroke-width:0.955269" />
  <circle
     cx="404.97751"
     cy="335.2305"
     r="1.3660349"
     fill="#ededf4"
     id="circle213"
     style="stroke-width:0.955269" />
  <circle
     cx="409.06604"
     cy="335.2305"
     r="1.3660349"
     fill="#ededf4"
     id="circle215"
     style="stroke-width:0.955269" />
  <circle
     cx="413.1546"
     cy="335.2305"
     r="1.3660349"
     fill="#ededf4"
     id="circle217"
     style="stroke-width:0.955269" />
  <rect
     x="399.5513"
     y="332.59283"
     width="200.54347"
     height="127.97547"
     fill="#e6e6e6"
     id="rect66"
     style="stroke-width:0.814136" />
  <rect
     x="414.74881"
     y="368.39587"
     width="166.19865"
     height="62.604324"
     fill="#ffffff"
     id="rect68"
     style="stroke-width:0.813962" />
  <rect
     x="445.02951"
     y="379.24216"
     width="39.887772"
     height="2.2720845"
     fill="#e6e6e6"
     id="rect70"
     style="stroke-width:0.813962" />
  <rect
     x="444.98944"
     y="387.58466"
     width="61.719131"
     height="2.2720845"
     fill="#f9b175"
     id="rect72"
     style="fill:#ff6841;fill-opacity:1;stroke-width:0.813962" />
  <rect
     x="444.98944"
     y="395.44452"
     width="48.435154"
     height="2.2720845"
     fill="#e6e6e6"
     id="rect74"
     style="stroke-width:0.813962" />
  <rect
     x="444.98944"
     y="403.30438"
     width="28.49127"
     height="2.2720845"
     fill="#e6e6e6"
     id="rect76"
     style="stroke-width:0.813962" />
  <rect
     x="444.98944"
     y="411.16425"
     width="42.7369"
     height="2.2720845"
     fill="#e6e6e6"
     id="rect78"
     style="stroke-width:0.813962" />
  <rect
     x="426.94049"
     y="378.58878"
     width="4.5586028"
     height="4.5441689"
     fill="#e6e6e6"
     id="rect80"
     style="stroke-width:0.813962" />
  <rect
     x="426.94049"
     y="386.44864"
     width="4.5586028"
     height="4.5441689"
     fill="#f9b175"
     id="rect82"
     style="fill:#ff6841;fill-opacity:1;stroke-width:0.813962" />
  <rect
     x="426.94049"
     y="394.30847"
     width="4.5586028"
     height="4.5441689"
     fill="#e6e6e6"
     id="rect84"
     style="stroke-width:0.813962" />
  <rect
     x="426.94049"
     y="402.16833"
     width="4.5586028"
     height="4.5441689"
     fill="#e6e6e6"
     id="rect86"
     style="stroke-width:0.813962" />
  <rect
     x="426.94049"
     y="410.0282"
     width="4.5586028"
     height="4.5441689"
     fill="#e6e6e6"
     id="rect88"
     style="stroke-width:0.813962" />
  <rect
     x="531.9809"
     y="376.2399"
     width="40.810547"
     height="40.681328"
     fill="#e6e6e6"
     id="rect90"
     style="stroke-width:0.813962" />
  <rect
     x="399.55157"
     width="200.45761"
     height="8.4892035"
     fill="#f9b175"
     id="rect92"
     y="332.47955"
     style="fill:#5ba3cd;fill-opacity:1;stroke-width:0.813962" />
  <ellipse
     cx="405.88013"
     cy="336.81967"
     fill="#ffffff"
     id="circle94"
     rx="1.7094721"
     ry="1.7040594"
     style="stroke-width:0.813962" />
  <ellipse
     cx="411.87137"
     cy="336.81967"
     fill="#ffffff"
     id="circle96"
     rx="1.7094721"
     ry="1.7040594"
     style="stroke-width:0.813962" />
  <ellipse
     cx="417.86258"
     cy="336.81967"
     fill="#ffffff"
     id="circle98"
     rx="1.7094721"
     ry="1.7040594"
     style="stroke-width:0.813962" />
</svg>
