<?xml version="1.0" encoding="UTF-8" standalone="no"?>
<svg
   viewBox="0 0 750 500"
   version="1.1"
   id="svg525"
   xmlns="http://www.w3.org/2000/svg"
   xmlns:svg="http://www.w3.org/2000/svg">
  <defs
     id="defs529" />
  <g
     id="freepik--background-complete--inject-3">
    <rect
       x="276.84"
       y="109.57"
       width="205.74"
       height="119.88"
       style="fill:#fff"
       id="rect2" />
    <path
       d="M483.28,230.16H276.13V108.86H483.28Z"
       style="fill:#ebebeb"
       id="path4" />
    <path
       d="M292.93,223.41c-.11,0-.2-24.51-.2-54.74s.09-54.75.2-54.75.19,24.51.19,54.75S293,223.41,292.93,223.41Z"
       style="fill:#e0e0e0"
       id="path6" />
    <path
       d="M288.7,118.53a29.17,29.17,0,0,1-6.82,0,30.7,30.7,0,0,1,6.82,0Z"
       style="fill:#e0e0e0"
       id="path8" />
    <path
       d="M288.7,125.75a29.17,29.17,0,0,1-6.82,0,29.17,29.17,0,0,1,6.82,0Z"
       style="fill:#e0e0e0"
       id="path10" />
    <path
       d="M288.7,133a30.7,30.7,0,0,1-6.82,0,29.17,29.17,0,0,1,6.82,0Z"
       style="fill:#e0e0e0"
       id="path12" />
    <path
       d="M288.7,140.18a29.17,29.17,0,0,1-6.82,0,29.17,29.17,0,0,1,6.82,0Z"
       style="fill:#e0e0e0"
       id="path14" />
    <path
       d="M288.7,147.4a30.7,30.7,0,0,1-6.82,0,29.17,29.17,0,0,1,6.82,0Z"
       style="fill:#e0e0e0"
       id="path16" />
    <path
       d="M288.7,154.61a29.17,29.17,0,0,1-6.82,0,29.17,29.17,0,0,1,6.82,0Z"
       style="fill:#e0e0e0"
       id="path18" />
    <path
       d="M288.7,161.83a30.7,30.7,0,0,1-6.82,0,29.17,29.17,0,0,1,6.82,0Z"
       style="fill:#e0e0e0"
       id="path20" />
    <path
       d="M288.7,169a29.17,29.17,0,0,1-6.82,0,29.17,29.17,0,0,1,6.82,0Z"
       style="fill:#e0e0e0"
       id="path22" />
    <path
       d="M288.7,176.26a30.7,30.7,0,0,1-6.82,0,29.17,29.17,0,0,1,6.82,0Z"
       style="fill:#e0e0e0"
       id="path24" />
    <path
       d="M288.7,183.47a29.17,29.17,0,0,1-6.82,0,29.17,29.17,0,0,1,6.82,0Z"
       style="fill:#e0e0e0"
       id="path26" />
    <path
       d="M288.7,190.69a30.7,30.7,0,0,1-6.82,0,29.17,29.17,0,0,1,6.82,0Z"
       style="fill:#e0e0e0"
       id="path28" />
    <path
       d="M288.7,197.9a29.17,29.17,0,0,1-6.82,0,29.17,29.17,0,0,1,6.82,0Z"
       style="fill:#e0e0e0"
       id="path30" />
    <path
       d="M288.7,205.12a30.7,30.7,0,0,1-6.82,0,29.17,29.17,0,0,1,6.82,0Z"
       style="fill:#e0e0e0"
       id="path32" />
    <path
       d="M288.7,212.33a29.17,29.17,0,0,1-6.82,0,30.7,30.7,0,0,1,6.82,0Z"
       style="fill:#e0e0e0"
       id="path34" />
    <path
       d="M288.7,219.55a30.7,30.7,0,0,1-6.82,0,29.17,29.17,0,0,1,6.82,0Z"
       style="fill:#e0e0e0"
       id="path36" />
    <path
       d="M316,118.11c0,.11-4,.2-8.84.2s-8.85-.09-8.85-.2,4-.2,8.85-.2S316,118,316,118.11Z"
       style="fill:#e0e0e0"
       id="path38" />
    <path
       d="M316,219.55c0,.11-4,.19-8.84.19s-8.85-.08-8.85-.19,4-.2,8.85-.2S316,219.44,316,219.55Z"
       style="fill:#e0e0e0"
       id="path40" />
    <path
       d="M340.63,133c0,.1-7.4.19-16.54.19s-16.54-.09-16.54-.19,7.4-.2,16.54-.2S340.63,132.86,340.63,133Z"
       style="fill:#e0e0e0"
       id="path42" />
    <path
       d="M378.89,133c0,.1-7.41.19-16.54.19s-16.55-.09-16.55-.19,7.41-.2,16.55-.2S378.89,132.86,378.89,133Z"
       style="fill:#e0e0e0"
       id="path44" />
    <path
       d="M364.27,140.18c0,.11-10.92.2-24.38.2s-24.38-.09-24.38-.2,10.91-.2,24.38-.2S364.27,140.07,364.27,140.18Z"
       style="fill:#e0e0e0"
       id="path46" />
    <path
       d="M364.27,147.4c0,.1-10.92.19-24.38.19s-24.38-.09-24.38-.19,10.91-.2,24.38-.2S364.27,147.29,364.27,147.4Z"
       style="fill:#e0e0e0"
       id="path48" />
    <path
       d="M397.83,169c0,.11-10.92.2-24.38.2s-24.38-.09-24.38-.2,10.92-.2,24.38-.2S397.83,168.93,397.83,169Z"
       style="fill:#e0e0e0"
       id="path50" />
    <path
       d="M383.35,154.61c0,.11-10.92.2-24.38.2s-24.38-.09-24.38-.2,10.91-.2,24.38-.2S383.35,154.5,383.35,154.61Z"
       style="fill:#e0e0e0"
       id="path52" />
    <path
       d="M442.93,154.61c0,.11-10.92.2-24.38.2s-24.38-.09-24.38-.2,10.92-.2,24.38-.2S442.93,154.5,442.93,154.61Z"
       style="fill:#e0e0e0"
       id="path54" />
    <path
       d="M422.21,140.18c0,.11-10.92.2-24.38.2s-24.38-.09-24.38-.2,10.91-.2,24.38-.2S422.21,140.07,422.21,140.18Z"
       style="fill:#e0e0e0"
       id="path56" />
    <path
       d="M455.89,169c0,.11-10.92.2-24.38.2s-24.38-.09-24.38-.2,10.91-.2,24.38-.2S455.89,168.93,455.89,169Z"
       style="fill:#e0e0e0"
       id="path58" />
    <path
       d="M449.16,147.4c0,.1-17,.19-37.85.19s-37.86-.09-37.86-.19,16.95-.2,37.86-.2S449.16,147.29,449.16,147.4Z"
       style="fill:#e0e0e0"
       id="path60" />
    <path
       d="M316,125.75c0,.11-4,.2-8.84.2s-8.85-.09-8.85-.2,4-.2,8.85-.2S316,125.64,316,125.75Z"
       style="fill:#e0e0e0"
       id="path62" />
    <path
       d="M316,212.33c0,.11-4,.2-8.84.2s-8.85-.09-8.85-.2,4-.19,8.85-.19S316,212.22,316,212.33Z"
       style="fill:#e0e0e0"
       id="path64" />
    <path
       d="M324.77,154.61c0,.11-4,.2-8.84.2s-8.85-.09-8.85-.2,4-.2,8.85-.2S324.77,154.5,324.77,154.61Z"
       style="fill:#e0e0e0"
       id="path66" />
    <path
       d="M466.49,154.61c0,.11-4,.2-8.84.2s-8.84-.09-8.84-.2,3.95-.2,8.84-.2S466.49,154.5,466.49,154.61Z"
       style="fill:#e0e0e0"
       id="path68" />
    <path
       d="M340.63,183.43c0,.11-7.4.2-16.54.2s-16.54-.09-16.54-.2,7.4-.2,16.54-.2S340.63,183.32,340.63,183.43Z"
       style="fill:#e0e0e0"
       id="path70" />
    <path
       d="M378.89,183.43c0,.11-7.41.2-16.54.2s-16.55-.09-16.55-.2,7.41-.2,16.55-.2S378.89,183.32,378.89,183.43Z"
       style="fill:#e0e0e0"
       id="path72" />
    <path
       d="M364.27,190.64c0,.11-10.92.2-24.38.2s-24.38-.09-24.38-.2,10.91-.19,24.38-.19S364.27,190.54,364.27,190.64Z"
       style="fill:#e0e0e0"
       id="path74" />
    <path
       d="M364.27,197.86c0,.11-10.92.2-24.38.2s-24.38-.09-24.38-.2,10.91-.2,24.38-.2S364.27,197.75,364.27,197.86Z"
       style="fill:#e0e0e0"
       id="path76" />
    <path
       d="M383.35,205.07c0,.11-10.92.2-24.38.2s-24.38-.09-24.38-.2,10.91-.19,24.38-.19S383.35,205,383.35,205.07Z"
       style="fill:#e0e0e0"
       id="path78" />
    <path
       d="M442.93,205.07c0,.11-10.92.2-24.38.2s-24.38-.09-24.38-.2,10.92-.19,24.38-.19S442.93,205,442.93,205.07Z"
       style="fill:#e0e0e0"
       id="path80" />
    <path
       d="M422.21,190.64c0,.11-10.92.2-24.38.2s-24.38-.09-24.38-.2,10.91-.19,24.38-.19S422.21,190.54,422.21,190.64Z"
       style="fill:#e0e0e0"
       id="path82" />
    <path
       d="M449.16,197.86c0,.11-17,.2-37.85.2s-37.86-.09-37.86-.2,16.95-.2,37.86-.2S449.16,197.75,449.16,197.86Z"
       style="fill:#e0e0e0"
       id="path84" />
    <path
       d="M324.77,205.07c0,.11-4,.2-8.84.2s-8.85-.09-8.85-.2,4-.19,8.85-.19S324.77,205,324.77,205.07Z"
       style="fill:#e0e0e0"
       id="path86" />
    <path
       d="M466.49,205.07c0,.11-4,.2-8.84.2s-8.84-.09-8.84-.2,3.95-.19,8.84-.19S466.49,205,466.49,205.07Z"
       style="fill:#e0e0e0"
       id="path88" />
    <rect
       x="38.98"
       y="174.26"
       width="69.96"
       height="49.87"
       style="fill:#f9b175;fill-opacity:1"
       id="rect90" />
    <path
       d="M109.48,181.66c0,.12-15.79.22-35.26.22S39,181.78,39,181.66s15.78-.22,35.27-.22S109.48,181.54,109.48,181.66Z"
       style="fill:#fff"
       id="path92" />
    <path
       d="M44.69,178a.9.9,0,0,1-.95.83.84.84,0,1,1,0-1.66A.9.9,0,0,1,44.69,178Z"
       style="fill:#fff"
       id="path94" />
    <path
       d="M48.12,178a.95.95,0,1,1-.94-.83A.89.89,0,0,1,48.12,178Z"
       style="fill:#fff"
       id="path96" />
    <path
       d="M51.55,178a.95.95,0,1,1-.94-.83A.89.89,0,0,1,51.55,178Z"
       style="fill:#fff"
       id="path98" />
    <rect
       x="254.32"
       y="247.75"
       width="105.52"
       height="61.49"
       style="fill:#fff"
       id="rect100" />
    <path
       d="M360.21,309.6H254V247.39H360.21Z"
       style="fill:#f5f5f5"
       id="path102" />
    <path
       d="M262.58,306.14c-.06,0-.11-12.57-.11-28.08s0-28.08.11-28.08.1,12.57.1,28.08S262.63,306.14,262.58,306.14Z"
       style="fill:#e0e0e0"
       id="path104" />
    <path
       d="M260.41,252.35a15.36,15.36,0,0,1-3.5,0,15.36,15.36,0,0,1,3.5,0Z"
       style="fill:#e0e0e0"
       id="path106" />
    <path
       d="M260.41,256.05a15.36,15.36,0,0,1-3.5,0,15.36,15.36,0,0,1,3.5,0Z"
       style="fill:#e0e0e0"
       id="path108" />
    <path
       d="M260.41,259.75a15.36,15.36,0,0,1-3.5,0,15.36,15.36,0,0,1,3.5,0Z"
       style="fill:#e0e0e0"
       id="path110" />
    <path
       d="M260.41,263.45a15.36,15.36,0,0,1-3.5,0,15.36,15.36,0,0,1,3.5,0Z"
       style="fill:#e0e0e0"
       id="path112" />
    <path
       d="M260.41,267.15a15.36,15.36,0,0,1-3.5,0,15.36,15.36,0,0,1,3.5,0Z"
       style="fill:#e0e0e0"
       id="path114" />
    <path
       d="M260.41,270.85a15.36,15.36,0,0,1-3.5,0,15.36,15.36,0,0,1,3.5,0Z"
       style="fill:#e0e0e0"
       id="path116" />
    <path
       d="M260.41,274.55a15.36,15.36,0,0,1-3.5,0,15.36,15.36,0,0,1,3.5,0Z"
       style="fill:#e0e0e0"
       id="path118" />
    <path
       d="M260.41,278.25a15.36,15.36,0,0,1-3.5,0,15.36,15.36,0,0,1,3.5,0Z"
       style="fill:#e0e0e0"
       id="path120" />
    <path
       d="M260.41,282a15.36,15.36,0,0,1-3.5,0,15.36,15.36,0,0,1,3.5,0Z"
       style="fill:#e0e0e0"
       id="path122" />
    <path
       d="M260.41,285.65a14,14,0,0,1-3.5,0,15.36,15.36,0,0,1,3.5,0Z"
       style="fill:#e0e0e0"
       id="path124" />
    <path
       d="M260.41,289.36a15.36,15.36,0,0,1-3.5,0,14,14,0,0,1,3.5,0Z"
       style="fill:#e0e0e0"
       id="path126" />
    <path
       d="M260.41,293.06a15.36,15.36,0,0,1-3.5,0,14,14,0,0,1,3.5,0Z"
       style="fill:#e0e0e0"
       id="path128" />
    <path
       d="M260.41,296.76a15.36,15.36,0,0,1-3.5,0,15.36,15.36,0,0,1,3.5,0Z"
       style="fill:#e0e0e0"
       id="path130" />
    <path
       d="M260.41,300.46a15.36,15.36,0,0,1-3.5,0,15.36,15.36,0,0,1,3.5,0Z"
       style="fill:#e0e0e0"
       id="path132" />
    <path
       d="M260.41,304.16a15.36,15.36,0,0,1-3.5,0,15.36,15.36,0,0,1,3.5,0Z"
       style="fill:#e0e0e0"
       id="path134" />
    <path
       d="M274.41,252.13c0,.06-2,.1-4.53.1s-4.54,0-4.54-.1,2-.1,4.54-.1S274.41,252.07,274.41,252.13Z"
       style="fill:#e0e0e0"
       id="path136" />
    <path
       d="M274.41,304.16s-2,.1-4.53.1-4.54-.05-4.54-.1,2-.1,4.54-.1S274.41,304.1,274.41,304.16Z"
       style="fill:#e0e0e0"
       id="path138" />
    <path
       d="M287,259.75c0,.06-3.8.1-8.48.1s-8.49,0-8.49-.1,3.8-.1,8.49-.1S287,259.69,287,259.75Z"
       style="fill:#e0e0e0"
       id="path140" />
    <path
       d="M306.67,259.75c0,.06-3.8.1-8.49.1s-8.48,0-8.48-.1,3.79-.1,8.48-.1S306.67,259.69,306.67,259.75Z"
       style="fill:#e0e0e0"
       id="path142" />
    <path
       d="M299.17,263.45c0,.06-5.6.1-12.51.1s-12.5,0-12.5-.1,5.6-.1,12.5-.1S299.17,263.39,299.17,263.45Z"
       style="fill:#e0e0e0"
       id="path144" />
    <path
       d="M299.17,267.15c0,.06-5.6.1-12.51.1s-12.5,0-12.5-.1,5.6-.1,12.5-.1S299.17,267.1,299.17,267.15Z"
       style="fill:#e0e0e0"
       id="path146" />
    <path
       d="M316.38,278.25c0,.06-5.6.1-12.5.1s-12.51,0-12.51-.1,5.6-.1,12.51-.1S316.38,278.2,316.38,278.25Z"
       style="fill:#e0e0e0"
       id="path148" />
    <path
       d="M309,270.85c0,.06-5.6.1-12.5.1s-12.51,0-12.51-.1,5.6-.1,12.51-.1S309,270.8,309,270.85Z"
       style="fill:#e0e0e0"
       id="path150" />
    <path
       d="M339.51,270.85c0,.06-5.6.1-12.5.1s-12.51,0-12.51-.1,5.6-.1,12.51-.1S339.51,270.8,339.51,270.85Z"
       style="fill:#e0e0e0"
       id="path152" />
    <path
       d="M328.88,263.45c0,.06-5.59.1-12.5.1s-12.5,0-12.5-.1,5.59-.1,12.5-.1S328.88,263.39,328.88,263.45Z"
       style="fill:#e0e0e0"
       id="path154" />
    <path
       d="M346.16,278.25c0,.06-5.6.1-12.5.1s-12.51,0-12.51-.1,5.6-.1,12.51-.1S346.16,278.2,346.16,278.25Z"
       style="fill:#e0e0e0"
       id="path156" />
    <path
       d="M342.71,267.15c0,.06-8.69.1-19.42.1s-19.41,0-19.41-.1,8.69-.1,19.41-.1S342.71,267.1,342.71,267.15Z"
       style="fill:#e0e0e0"
       id="path158" />
    <path
       d="M274.41,256.05c0,.05-2,.1-4.53.1s-4.54,0-4.54-.1,2-.1,4.54-.1S274.41,256,274.41,256.05Z"
       style="fill:#e0e0e0"
       id="path160" />
    <path
       d="M274.41,300.46c0,.05-2,.1-4.53.1s-4.54-.05-4.54-.1,2-.1,4.54-.1S274.41,300.4,274.41,300.46Z"
       style="fill:#e0e0e0"
       id="path162" />
    <path
       d="M278.91,270.85c0,.06-2,.1-4.54.1s-4.53,0-4.53-.1,2-.1,4.53-.1S278.91,270.8,278.91,270.85Z"
       style="fill:#e0e0e0"
       id="path164" />
    <path
       d="M351.6,270.85c0,.06-2,.1-4.54.1s-4.53,0-4.53-.1,2-.1,4.53-.1S351.6,270.8,351.6,270.85Z"
       style="fill:#e0e0e0"
       id="path166" />
    <path
       d="M287,285.63c0,.06-3.8.1-8.48.1s-8.49,0-8.49-.1,3.8-.1,8.49-.1S287,285.58,287,285.63Z"
       style="fill:#e0e0e0"
       id="path168" />
    <path
       d="M306.67,285.63c0,.06-3.8.1-8.49.1s-8.48,0-8.48-.1,3.79-.1,8.48-.1S306.67,285.58,306.67,285.63Z"
       style="fill:#e0e0e0"
       id="path170" />
    <path
       d="M299.17,289.33c0,.06-5.6.1-12.51.1s-12.5,0-12.5-.1,5.6-.1,12.5-.1S299.17,289.28,299.17,289.33Z"
       style="fill:#e0e0e0"
       id="path172" />
    <path
       d="M299.17,293c0,.06-5.6.11-12.51.11s-12.5-.05-12.5-.11,5.6-.1,12.5-.1S299.17,293,299.17,293Z"
       style="fill:#e0e0e0"
       id="path174" />
    <path
       d="M309,296.73c0,.06-5.6.11-12.5.11s-12.51,0-12.51-.11,5.6-.1,12.51-.1S309,296.68,309,296.73Z"
       style="fill:#e0e0e0"
       id="path176" />
    <path
       d="M339.51,296.73c0,.06-5.6.11-12.5.11s-12.51,0-12.51-.11,5.6-.1,12.51-.1S339.51,296.68,339.51,296.73Z"
       style="fill:#e0e0e0"
       id="path178" />
    <path
       d="M328.88,289.33c0,.06-5.59.1-12.5.1s-12.5,0-12.5-.1,5.59-.1,12.5-.1S328.88,289.28,328.88,289.33Z"
       style="fill:#e0e0e0"
       id="path180" />
    <path
       d="M342.71,293c0,.06-8.69.11-19.42.11s-19.41-.05-19.41-.11,8.69-.1,19.41-.1S342.71,293,342.71,293Z"
       style="fill:#e0e0e0"
       id="path182" />
    <path
       d="M278.91,296.73c0,.06-2,.11-4.54.11s-4.53,0-4.53-.11,2-.1,4.53-.1S278.91,296.68,278.91,296.73Z"
       style="fill:#e0e0e0"
       id="path184" />
    <path
       d="M351.6,296.73c0,.06-2,.11-4.54.11s-4.53,0-4.53-.11,2-.1,4.53-.1S351.6,296.68,351.6,296.73Z"
       style="fill:#e0e0e0"
       id="path186" />
    <rect
       x="555.98"
       y="43.32"
       width="105.52"
       height="61.49"
       style="fill:#fff"
       id="rect188" />
    <path
       d="M661.86,105.17H555.61V43H661.86Z"
       style="fill:#f5f5f5"
       id="path190" />
    <path
       d="M564.23,101.71c-.06,0-.1-12.57-.1-28.08s0-28.08.1-28.08.1,12.57.1,28.08S564.28,101.71,564.23,101.71Z"
       style="fill:#e0e0e0"
       id="path192" />
    <path
       d="M562.06,47.92a15.36,15.36,0,0,1-3.5,0,15.36,15.36,0,0,1,3.5,0Z"
       style="fill:#e0e0e0"
       id="path194" />
    <path
       d="M562.06,51.62a15.36,15.36,0,0,1-3.5,0,15.36,15.36,0,0,1,3.5,0Z"
       style="fill:#e0e0e0"
       id="path196" />
    <path
       d="M562.06,55.32a15.36,15.36,0,0,1-3.5,0,15.36,15.36,0,0,1,3.5,0Z"
       style="fill:#e0e0e0"
       id="path198" />
    <path
       d="M562.06,59a15.36,15.36,0,0,1-3.5,0,15.36,15.36,0,0,1,3.5,0Z"
       style="fill:#e0e0e0"
       id="path200" />
    <path
       d="M562.06,62.72a15.36,15.36,0,0,1-3.5,0,15.36,15.36,0,0,1,3.5,0Z"
       style="fill:#e0e0e0"
       id="path202" />
    <path
       d="M562.06,66.42a15.36,15.36,0,0,1-3.5,0,15.36,15.36,0,0,1,3.5,0Z"
       style="fill:#e0e0e0"
       id="path204" />
    <path
       d="M562.06,70.12a15.36,15.36,0,0,1-3.5,0,15.36,15.36,0,0,1,3.5,0Z"
       style="fill:#e0e0e0"
       id="path206" />
    <path
       d="M562.06,73.82a15.36,15.36,0,0,1-3.5,0,15.36,15.36,0,0,1,3.5,0Z"
       style="fill:#e0e0e0"
       id="path208" />
    <path
       d="M562.06,77.52a15.36,15.36,0,0,1-3.5,0,15.36,15.36,0,0,1,3.5,0Z"
       style="fill:#e0e0e0"
       id="path210" />
    <path
       d="M562.06,81.22a15.36,15.36,0,0,1-3.5,0,15.36,15.36,0,0,1,3.5,0Z"
       style="fill:#e0e0e0"
       id="path212" />
    <path
       d="M562.06,84.92a14,14,0,0,1-3.5,0,15.36,15.36,0,0,1,3.5,0Z"
       style="fill:#e0e0e0"
       id="path214" />
    <path
       d="M562.06,88.62a14,14,0,0,1-3.5,0,15.36,15.36,0,0,1,3.5,0Z"
       style="fill:#e0e0e0"
       id="path216" />
    <path
       d="M562.06,92.33a15.36,15.36,0,0,1-3.5,0,14,14,0,0,1,3.5,0Z"
       style="fill:#e0e0e0"
       id="path218" />
    <path
       d="M562.06,96a15.36,15.36,0,0,1-3.5,0,15.36,15.36,0,0,1,3.5,0Z"
       style="fill:#e0e0e0"
       id="path220" />
    <path
       d="M562.06,99.73a15.36,15.36,0,0,1-3.5,0,15.36,15.36,0,0,1,3.5,0Z"
       style="fill:#e0e0e0"
       id="path222" />
    <path
       d="M576.07,47.7c0,.06-2,.1-4.54.1s-4.53,0-4.53-.1,2-.1,4.53-.1S576.07,47.64,576.07,47.7Z"
       style="fill:#e0e0e0"
       id="path224" />
    <path
       d="M576.07,99.73s-2,.1-4.54.1-4.53,0-4.53-.1,2-.1,4.53-.1S576.07,99.67,576.07,99.73Z"
       style="fill:#e0e0e0"
       id="path226" />
    <path
       d="M588.7,55.32s-3.8.1-8.49.1-8.48-.05-8.48-.1,3.8-.1,8.48-.1S588.7,55.26,588.7,55.32Z"
       style="fill:#e0e0e0"
       id="path228" />
    <path
       d="M608.32,55.32s-3.8.1-8.49.1-8.48-.05-8.48-.1,3.8-.1,8.48-.1S608.32,55.26,608.32,55.32Z"
       style="fill:#e0e0e0"
       id="path230" />
    <path
       d="M600.82,59c0,.06-5.6.1-12.5.1s-12.51,0-12.51-.1,5.6-.1,12.51-.1S600.82,59,600.82,59Z"
       style="fill:#e0e0e0"
       id="path232" />
    <path
       d="M600.82,62.72c0,.06-5.6.1-12.5.1s-12.51,0-12.51-.1,5.6-.1,12.51-.1S600.82,62.66,600.82,62.72Z"
       style="fill:#e0e0e0"
       id="path234" />
    <path
       d="M618,73.82c0,.06-5.59.1-12.5.1s-12.5,0-12.5-.1,5.59-.1,12.5-.1S618,73.77,618,73.82Z"
       style="fill:#e0e0e0"
       id="path236" />
    <path
       d="M610.61,66.42c0,.06-5.6.1-12.51.1s-12.5,0-12.5-.1,5.59-.1,12.5-.1S610.61,66.37,610.61,66.42Z"
       style="fill:#e0e0e0"
       id="path238" />
    <path
       d="M641.17,66.42c0,.06-5.6.1-12.51.1s-12.5,0-12.5-.1,5.6-.1,12.5-.1S641.17,66.37,641.17,66.42Z"
       style="fill:#e0e0e0"
       id="path240" />
    <path
       d="M630.54,59c0,.06-5.6.1-12.51.1s-12.5,0-12.5-.1,5.6-.1,12.5-.1S630.54,59,630.54,59Z"
       style="fill:#e0e0e0"
       id="path242" />
    <path
       d="M647.81,73.82c0,.06-5.6.1-12.5.1s-12.51,0-12.51-.1,5.6-.1,12.51-.1S647.81,73.77,647.81,73.82Z"
       style="fill:#e0e0e0"
       id="path244" />
    <path
       d="M644.36,62.72c0,.06-8.69.1-19.41.1s-19.42,0-19.42-.1,8.69-.1,19.42-.1S644.36,62.66,644.36,62.72Z"
       style="fill:#e0e0e0"
       id="path246" />
    <path
       d="M576.07,51.62c0,.05-2,.1-4.54.1s-4.53,0-4.53-.1,2-.1,4.53-.1S576.07,51.56,576.07,51.62Z"
       style="fill:#e0e0e0"
       id="path248" />
    <path
       d="M576.07,96s-2,.1-4.54.1-4.53,0-4.53-.1,2-.1,4.53-.1S576.07,96,576.07,96Z"
       style="fill:#e0e0e0"
       id="path250" />
    <path
       d="M580.56,66.42c0,.06-2,.1-4.53.1s-4.54,0-4.54-.1,2-.1,4.54-.1S580.56,66.37,580.56,66.42Z"
       style="fill:#e0e0e0"
       id="path252" />
    <path
       d="M653.25,66.42c0,.06-2,.1-4.54.1s-4.53,0-4.53-.1,2-.1,4.53-.1S653.25,66.37,653.25,66.42Z"
       style="fill:#e0e0e0"
       id="path254" />
    <path
       d="M588.7,81.2c0,.06-3.8.1-8.49.1s-8.48,0-8.48-.1,3.8-.1,8.48-.1S588.7,81.15,588.7,81.2Z"
       style="fill:#e0e0e0"
       id="path256" />
    <path
       d="M608.32,81.2c0,.06-3.8.1-8.49.1s-8.48,0-8.48-.1,3.8-.1,8.48-.1S608.32,81.15,608.32,81.2Z"
       style="fill:#e0e0e0"
       id="path258" />
    <path
       d="M600.82,84.9c0,.06-5.6.1-12.5.1s-12.51,0-12.51-.1,5.6-.1,12.51-.1S600.82,84.85,600.82,84.9Z"
       style="fill:#e0e0e0"
       id="path260" />
    <path
       d="M600.82,88.6c0,.06-5.6.1-12.5.1s-12.51,0-12.51-.1,5.6-.1,12.51-.1S600.82,88.55,600.82,88.6Z"
       style="fill:#e0e0e0"
       id="path262" />
    <path
       d="M610.61,92.3c0,.06-5.6.1-12.51.1s-12.5,0-12.5-.1,5.59-.1,12.5-.1S610.61,92.25,610.61,92.3Z"
       style="fill:#e0e0e0"
       id="path264" />
    <path
       d="M641.17,92.3c0,.06-5.6.1-12.51.1s-12.5,0-12.5-.1,5.6-.1,12.5-.1S641.17,92.25,641.17,92.3Z"
       style="fill:#e0e0e0"
       id="path266" />
    <path
       d="M630.54,84.9c0,.06-5.6.1-12.51.1s-12.5,0-12.5-.1,5.6-.1,12.5-.1S630.54,84.85,630.54,84.9Z"
       style="fill:#e0e0e0"
       id="path268" />
    <path
       d="M644.36,88.6c0,.06-8.69.1-19.41.1s-19.42,0-19.42-.1,8.69-.1,19.42-.1S644.36,88.55,644.36,88.6Z"
       style="fill:#e0e0e0"
       id="path270" />
    <path
       d="M580.56,92.3c0,.06-2,.1-4.53.1s-4.54,0-4.54-.1,2-.1,4.54-.1S580.56,92.25,580.56,92.3Z"
       style="fill:#e0e0e0"
       id="path272" />
    <path
       d="M653.25,92.3c0,.06-2,.1-4.54.1s-4.53,0-4.53-.1,2-.1,4.53-.1S653.25,92.25,653.25,92.3Z"
       style="fill:#e0e0e0"
       id="path274" />
    <path
       d="M687.24,189.43a4.41,4.41,0,0,1,.78-.88l2.26-2.28c1.93-1.9,4.61-4.5,7.6-7.36l.07-.06v.38c-3-2.79-5.71-5.35-7.65-7.21L688,169.79a4.24,4.24,0,0,1-.78-.87,5.61,5.61,0,0,1,.92.72l2.39,2.11c2,1.79,4.75,4.3,7.76,7.1l.21.19-.21.19-.07.07c-3,2.85-5.71,5.41-7.7,7.24l-2.38,2.15A5.24,5.24,0,0,1,687.24,189.43Z"
       style="fill:#ff6841;fill-opacity:1"
       id="path276" />
    <path
       d="M664,168.92a5.1,5.1,0,0,1-.78.89L661,172.08c-1.93,1.91-4.62,4.51-7.61,7.36l-.06.06v-.38c3,2.8,5.72,5.35,7.66,7.21l2.27,2.23a5.55,5.55,0,0,1,.79.87,5,5,0,0,1-.92-.72l-2.39-2.1c-2-1.8-4.75-4.31-7.76-7.1l-.21-.19.2-.2.07-.06c3-2.85,5.72-5.41,7.71-7.25l2.38-2.15A5.42,5.42,0,0,1,664,168.92Z"
       style="fill:#ff6841;fill-opacity:1"
       id="path278" />
    <path
       d="M670,194.26c-.14,0,2.3-6.91,5.45-15.32s5.8-15.18,5.94-15.13-2.31,6.91-5.45,15.32S670.09,194.31,670,194.26Z"
       style="fill:#ff6841;fill-opacity:1"
       id="path280" />
    <path
       d="M713.66,208.94s0-.4,0-1.15,0-1.86,0-3.3c0-2.9,0-7.12-.06-12.5,0-10.75-.07-26.13-.11-44.67l.22.22-75.62,0h0l.27-.26c0,22.28,0,43.31,0,61.62l-.24-.24,54.61.12,15.48.06,4.11,0,1.06,0h0l-1,0-4.06,0-15.43.07-54.76.11h-.23v-.23c0-18.31,0-39.34,0-61.62v-.26H638l75.62,0h.22v.22c0,18.6-.09,34-.12,44.81,0,5.36,0,9.56,0,12.45,0,1.42,0,2.5,0,3.26S713.66,208.94,713.66,208.94Z"
       style="fill:#ff6841;fill-opacity:1"
       id="path282" />
    <path
       d="M714.25,156.46c0,.15-17.07.27-38.12.27s-38.13-.12-38.13-.27,17.07-.26,38.13-.26S714.25,156.32,714.25,156.46Z"
       style="fill:#ff6841;fill-opacity:1"
       id="path284" />
    <path
       d="M644.21,152a1,1,0,1,1-1-1A1,1,0,0,1,644.21,152Z"
       style="fill:#ff6841;fill-opacity:1"
       id="path286" />
    <path
       d="M647.92,152a1,1,0,1,1-1-1A1,1,0,0,1,647.92,152Z"
       style="fill:#ff6841;fill-opacity:1"
       id="path288" />
    <path
       d="M651.63,152a1,1,0,1,1-1-1A1,1,0,0,1,651.63,152Z"
       style="fill:#ff6841;fill-opacity:1"
       id="path290" />
  </g>
  <g
     id="freepik--Desk--inject-3">
    <path
       d="M718.3,444.47c0,.14-153.71.26-343.28.26s-343.32-.12-343.32-.26,153.68-.26,343.32-.26S718.3,444.33,718.3,444.47Z"
       style="fill:#263238"
       id="path293" />
  </g>
  <g
     id="freepik--Screens--inject-3">
    <path
       d="M489.61,275.37a.94.94,0,0,1,0-.27c0-.21,0-.47,0-.8,0-.75,0-1.78-.05-3.09,0-2.73-.05-6.6-.09-11.37,0-9.64,0-22.88-.07-37.51,0-6.93,0-13.55,0-19.58l.24.24-24.1-.09-6.9-.07-1.84,0a2.83,2.83,0,0,1-.63,0,3.91,3.91,0,0,1,.63,0l1.84,0,6.9-.07,24.1-.09h.24v.24c0,6,0,12.65,0,19.58,0,14.63-.06,27.87-.08,37.51,0,4.77-.06,8.64-.08,11.37,0,1.31,0,2.34,0,3.09,0,.33,0,.59,0,.8A.8.8,0,0,1,489.61,275.37Z"
       style="fill:#263238"
       id="path296" />
    <path
       d="M304.6,215.87c.15,0,.26,26.85.26,60s-.11,60-.26,60-.26-26.84-.26-60S304.46,215.87,304.6,215.87Z"
       style="fill:#263238"
       id="path298" />
    <path
       d="M308,335.79a3.38,3.38,0,1,1-3.38-3.37A3.37,3.37,0,0,1,308,335.79Z"
       style="fill:#263238"
       id="path300" />
    <path
       d="M493,275.37a3.37,3.37,0,1,1-3.37-3.37A3.37,3.37,0,0,1,493,275.37Z"
       style="fill:#263238"
       id="path302" />
    <rect
       x="262.4"
       y="95.5"
       width="208.34"
       height="121.4"
       style="fill:#263238"
       id="rect304" />
    <path
       d="M278.7,210.79c-.11,0-.2-24.83-.2-55.44s.09-55.45.2-55.45.2,24.82.2,55.45S278.81,210.79,278.7,210.79Z"
       style="fill:#e0e0e0"
       id="path306" />
    <path
       d="M278.7,210.91c-.06,0-.09,0-.12-.16h0c-.05-.33-.06-1.33-.08-4.31,0-2.79-.05-6.79-.07-11.88,0-10.47-.06-24.39-.06-39.2s0-28.74.06-39.21c0-5.09,0-9.09.07-11.88,0-3,0-4,.08-4.31h0c0-.16.06-.16.12-.16s.09,0,.11.16h0c.05.33.06,1.33.08,4.31,0,2.79.05,6.79.06,11.88,0,10.48.06,24.4.06,39.21s0,28.72-.06,39.2c0,5.09,0,9.09-.06,11.88,0,3,0,4-.08,4.31h0C278.79,210.91,278.75,210.91,278.7,210.91Zm0-98.8c-.05,10.21-.08,25.86-.08,43.24s0,33,.08,43.23c0-10.2.07-25.86.07-43.23S278.74,122.32,278.7,112.11Z"
       style="fill:#e0e0e0"
       id="path308" />
    <path
       d="M274.41,104.58a29.86,29.86,0,0,1-6.9,0,29.86,29.86,0,0,1,6.9,0Z"
       style="fill:#e0e0e0"
       id="path310" />
    <path
       d="M271,104.9c-3.57,0-3.57-.21-3.57-.32s0-.32,3.57-.32,3.58.21,3.58.32S274.54,104.9,271,104.9Zm-2.69-.32c.57,0,1.47.07,2.69.07s2.13,0,2.69-.07c-.56,0-1.47-.07-2.69-.07S268.84,104.54,268.27,104.58Z"
       style="fill:#e0e0e0"
       id="path312" />
    <path
       d="M274.41,111.89a29.86,29.86,0,0,1-6.9,0,29.86,29.86,0,0,1,6.9,0Z"
       style="fill:#e0e0e0"
       id="path314" />
    <path
       d="M271,112.21c-3.57,0-3.57-.21-3.57-.32s0-.33,3.57-.33,3.58.21,3.58.33S274.54,112.21,271,112.21Zm-2.69-.32c.57,0,1.47.07,2.69.07s2.13,0,2.69-.07c-.56,0-1.47-.08-2.69-.08S268.84,111.85,268.27,111.89Z"
       style="fill:#e0e0e0"
       id="path316" />
    <path
       d="M274.41,119.19a29.86,29.86,0,0,1-6.9,0,29.86,29.86,0,0,1,6.9,0Z"
       style="fill:#e0e0e0"
       id="path318" />
    <path
       d="M271,119.52c-3.57,0-3.57-.21-3.57-.33s0-.32,3.57-.32,3.58.21,3.58.32S274.54,119.52,271,119.52Zm-2.68-.33c.56,0,1.46.08,2.68.08s2.13,0,2.69-.08c-.56,0-1.47-.07-2.69-.07S268.84,119.15,268.28,119.19Z"
       style="fill:#e0e0e0"
       id="path320" />
    <path
       d="M274.41,126.5a29.86,29.86,0,0,1-6.9,0,29.86,29.86,0,0,1,6.9,0Z"
       style="fill:#e0e0e0"
       id="path322" />
    <path
       d="M271,126.82c-3.57,0-3.57-.21-3.57-.32s0-.33,3.57-.33,3.58.22,3.58.33S274.54,126.82,271,126.82Zm-2.68-.32c.57,0,1.47.07,2.68.07s2.12,0,2.69-.07c-.58,0-1.5-.08-2.69-.08S268.86,126.46,268.28,126.5Z"
       style="fill:#e0e0e0"
       id="path324" />
    <path
       d="M274.41,133.81a29.86,29.86,0,0,1-6.9,0,29.86,29.86,0,0,1,6.9,0Z"
       style="fill:#e0e0e0"
       id="path326" />
    <path
       d="M271,134.13c-3.57,0-3.57-.21-3.57-.32s0-.33,3.57-.33,3.58.21,3.58.33S274.54,134.13,271,134.13Zm-2.68-.32c.56,0,1.46.07,2.68.07s2.13,0,2.69-.07c-.56,0-1.47-.08-2.69-.08S268.84,133.77,268.28,133.81Z"
       style="fill:#e0e0e0"
       id="path328" />
    <path
       d="M274.41,141.11a29.86,29.86,0,0,1-6.9,0,29.86,29.86,0,0,1,6.9,0Z"
       style="fill:#e0e0e0"
       id="path330" />
    <path
       d="M271,141.44c-3.57,0-3.57-.21-3.57-.33s0-.32,3.57-.32,3.58.21,3.58.32S274.54,141.44,271,141.44Zm-2.68-.33c.56,0,1.46.08,2.68.08s2.13,0,2.69-.08c-.56,0-1.47-.07-2.69-.07S268.84,141.07,268.28,141.11Z"
       style="fill:#e0e0e0"
       id="path332" />
    <path
       d="M274.41,148.42a29.86,29.86,0,0,1-6.9,0,29.86,29.86,0,0,1,6.9,0Z"
       style="fill:#e0e0e0"
       id="path334" />
    <path
       d="M271,148.74c-3.57,0-3.57-.21-3.57-.32s0-.33,3.57-.33,3.58.22,3.58.33S274.54,148.74,271,148.74Zm-2.69-.32c.57,0,1.47.07,2.69.07s2.13,0,2.69-.07c-.56,0-1.47-.08-2.69-.08S268.84,148.38,268.27,148.42Z"
       style="fill:#e0e0e0"
       id="path336" />
    <path
       d="M274.41,155.73a31.42,31.42,0,0,1-6.9,0,29.86,29.86,0,0,1,6.9,0Z"
       style="fill:#e0e0e0"
       id="path338" />
    <path
       d="M271,156.05c-3.57,0-3.57-.21-3.57-.32s0-.33,3.57-.33,3.58.21,3.58.33S274.54,156.05,271,156.05Zm-2.68-.32c.56,0,1.46.07,2.68.07s2.13,0,2.69-.07c-.56,0-1.47-.08-2.69-.08S268.84,155.68,268.28,155.73Z"
       style="fill:#e0e0e0"
       id="path340" />
    <path
       d="M274.41,163a29.86,29.86,0,0,1-6.9,0,29.86,29.86,0,0,1,6.9,0Z"
       style="fill:#e0e0e0"
       id="path342" />
    <path
       d="M271,163.36c-3.57,0-3.57-.22-3.57-.33s0-.32,3.57-.32,3.58.21,3.58.32S274.54,163.36,271,163.36Zm-2.68-.33c.57,0,1.47.08,2.68.08s2.12,0,2.69-.08c-.58,0-1.5-.07-2.69-.07S268.86,163,268.28,163Z"
       style="fill:#e0e0e0"
       id="path344" />
    <path
       d="M274.41,170.34a29.86,29.86,0,0,1-6.9,0,29.86,29.86,0,0,1,6.9,0Z"
       style="fill:#e0e0e0"
       id="path346" />
    <path
       d="M271,170.66c-3.57,0-3.57-.21-3.57-.32s0-.33,3.57-.33,3.58.21,3.58.33S274.54,170.66,271,170.66Zm-2.68-.32c.58,0,1.5.07,2.68.07s2.11,0,2.69-.07c-.57,0-1.47-.08-2.69-.08S268.85,170.3,268.28,170.34Z"
       style="fill:#e0e0e0"
       id="path348" />
    <path
       d="M274.41,177.64a29.86,29.86,0,0,1-6.9,0,31.42,31.42,0,0,1,6.9,0Z"
       style="fill:#e0e0e0"
       id="path350" />
    <path
       d="M271,178c-3.57,0-3.57-.21-3.57-.33s0-.32,3.57-.32,3.58.21,3.58.32S274.54,178,271,178Zm-2.68-.33c.56.05,1.46.08,2.68.08s2.13,0,2.69-.08c-.56,0-1.47-.07-2.69-.07S268.84,177.6,268.28,177.64Z"
       style="fill:#e0e0e0"
       id="path352" />
    <path
       d="M274.41,185a29.86,29.86,0,0,1-6.9,0,29.86,29.86,0,0,1,6.9,0Z"
       style="fill:#e0e0e0"
       id="path354" />
    <path
       d="M271,185.28c-3.57,0-3.57-.22-3.57-.33s0-.32,3.57-.32,3.58.21,3.58.32S274.54,185.28,271,185.28Zm-2.68-.33c.57,0,1.47.08,2.68.08s2.12,0,2.69-.08c-.58,0-1.5-.07-2.69-.07S268.86,184.91,268.28,185Z"
       style="fill:#e0e0e0"
       id="path356" />
    <path
       d="M274.41,192.26a29.86,29.86,0,0,1-6.9,0,29.86,29.86,0,0,1,6.9,0Z"
       style="fill:#e0e0e0"
       id="path358" />
    <path
       d="M271,192.58c-3.57,0-3.57-.21-3.57-.32s0-.33,3.57-.33,3.58.21,3.58.33S274.54,192.58,271,192.58Zm-2.69-.32c.57,0,1.47.07,2.69.07s2.13,0,2.69-.07c-.56,0-1.47-.08-2.69-.08S268.84,192.22,268.27,192.26Z"
       style="fill:#e0e0e0"
       id="path360" />
    <path
       d="M274.41,199.56a29.86,29.86,0,0,1-6.9,0,29.86,29.86,0,0,1,6.9,0Z"
       style="fill:#e0e0e0"
       id="path362" />
    <path
       d="M271,199.89c-3.57,0-3.57-.21-3.57-.33s0-.32,3.57-.32,3.58.21,3.58.32S274.54,199.89,271,199.89Zm-2.68-.33c.56,0,1.46.08,2.68.08s2.13,0,2.69-.08c-.56,0-1.47-.07-2.69-.07S268.84,199.52,268.28,199.56Z"
       style="fill:#e0e0e0"
       id="path364" />
    <path
       d="M274.41,206.87a29.86,29.86,0,0,1-6.9,0,29.86,29.86,0,0,1,6.9,0Z"
       style="fill:#e0e0e0"
       id="path366" />
    <path
       d="M271,207.2c-3.57,0-3.57-.22-3.57-.33s0-.32,3.57-.32,3.58.21,3.58.32S274.54,207.2,271,207.2Zm-2.69-.33c.57,0,1.47.08,2.69.08s2.13,0,2.69-.08c-.56,0-1.47-.07-2.69-.07S268.84,206.83,268.27,206.87Z"
       style="fill:#e0e0e0"
       id="path368" />
    <path
       d="M302.07,104.15c0,.11-4,.2-8.95.2s-9-.09-9-.2,4-.2,9-.2S302.07,104,302.07,104.15Z"
       style="fill:#FF6841"
       id="path370" />
    <path
       d="M293.12,104.47c-2.39,0-4.64,0-6.34,0-2.74-.07-2.74-.11-2.74-.27s0-.21,2.74-.27c1.69,0,3.94-.06,6.34-.06s4.64,0,6.33.06c2.74.06,2.74.11,2.74.27s0,.2-2.74.27C297.76,104.45,295.51,104.47,293.12,104.47Zm-7-.32c1.55,0,4,.07,7,.07s5.43,0,7-.07c-1.56,0-4-.08-7-.08S287.68,104.11,286.13,104.15Z"
       style="fill:#FF6841"
       id="path372" />
    <path
       d="M302.07,206.87c0,.11-4,.2-8.95.2s-9-.09-9-.2,4-.2,9-.2S302.07,206.76,302.07,206.87Z"
       style="fill:#FF6841"
       id="path374" />
    <path
       d="M293.12,207.2c-2.4,0-4.65,0-6.34-.06-2.74-.06-2.74-.11-2.74-.27s0-.2,2.74-.27c1.69,0,3.94,0,6.34,0s4.64,0,6.33,0c2.74.07,2.74.11,2.74.27s0,.21-2.74.27C297.76,207.17,295.51,207.2,293.12,207.2Zm-7-.33c1.55,0,4,.08,7,.08s5.43,0,7-.08c-1.56,0-4-.07-7-.07S287.68,206.83,286.13,206.87Z"
       style="fill:#FF6841"
       id="path376" />
    <path
       d="M327,119.19c0,.11-7.5.2-16.75.2s-16.76-.09-16.76-.2,7.5-.2,16.76-.2S327,119.08,327,119.19Z"
       style="fill:#FF6841"
       id="path378" />
    <path
       d="M310.26,119.52c-4.48,0-8.69,0-11.85-.06-5-.06-5-.1-5-.27s0-.2,5-.26c3.16,0,7.37-.06,11.85-.06s8.68,0,11.84.06c5,.06,5,.09,5,.26s0,.21-5,.27C318.94,119.5,314.73,119.52,310.26,119.52Zm-13.06-.33c2.92,0,7.43.08,13.06.08s10.13,0,13.05-.08c-2.92,0-7.43-.07-13.05-.07S300.12,119.15,297.2,119.19Z"
       style="fill:#FF6841"
       id="path380" />
    <path
       d="M365.75,119.19c0,.11-7.5.2-16.75.2s-16.76-.09-16.76-.2,7.5-.2,16.76-.2S365.75,119.08,365.75,119.19Z"
       style="fill:#e0e0e0"
       id="path382" />
    <path
       d="M349,119.52c-4.48,0-8.69,0-11.85-.06-5-.06-5-.1-5-.27s0-.2,5-.26c3.16,0,7.37-.06,11.85-.06s8.68,0,11.84.06c5,.06,5,.09,5,.26s0,.21-5,.27C357.68,119.5,353.47,119.52,349,119.52Zm-13.06-.33c2.92,0,7.43.08,13.06.08s10.13,0,13.05-.08c-2.92,0-7.43-.07-13.05-.07S338.86,119.15,335.94,119.19Z"
       style="fill:#e0e0e0"
       id="path384" />
    <path
       d="M350.94,126.5c0,.11-11.05.2-24.69.2s-24.68-.09-24.68-.2,11.05-.2,24.68-.2S350.94,126.39,350.94,126.5Z"
       style="fill:#e0e0e0"
       id="path386" />
    <path
       d="M326.25,126.82c-6.59,0-12.79,0-17.45,0-7.36-.06-7.36-.1-7.36-.27s0-.21,7.36-.27c4.66,0,10.86-.06,17.45-.06s12.79,0,17.46.06c7.36.06,7.36.09,7.36.27s0,.21-7.36.27C339.05,126.8,332.85,126.82,326.25,126.82ZM307,126.5c4.29,0,10.94.07,19.24.07s14.95,0,19.24-.07c-4.29,0-10.93-.08-19.24-.08S311.3,126.46,307,126.5Z"
       style="fill:#e0e0e0"
       id="path388" />
    <path
       d="M350.94,133.81c0,.11-11.05.2-24.69.2s-24.68-.09-24.68-.2,11.05-.2,24.68-.2S350.94,133.7,350.94,133.81Z"
       style="fill:#e0e0e0"
       id="path390" />
    <path
       d="M326.25,134.13c-6.59,0-12.79,0-17.45-.06-7.36-.06-7.36-.09-7.36-.26s0-.21,7.36-.27c4.66,0,10.86-.06,17.45-.06s12.8,0,17.46.06c7.36.06,7.36.09,7.36.27s0,.2-7.36.26C339.05,134.11,332.85,134.13,326.25,134.13ZM307,133.81c4.29,0,10.93.07,19.22.07s14.94,0,19.23-.07c-4.29-.05-10.93-.08-19.23-.08S311.32,133.76,307,133.81Z"
       style="fill:#e0e0e0"
       id="path392" />
    <path
       d="M384.93,155.73c0,.11-11.06.19-24.69.19s-24.69-.08-24.69-.19,11.05-.2,24.69-.2S384.93,155.62,384.93,155.73Z"
       style="fill:#e0e0e0"
       id="path394" />
    <path
       d="M360.24,156.05c-6.59,0-12.79,0-17.46-.06-7.35-.06-7.35-.09-7.35-.26s0-.21,7.35-.27c4.66,0,10.87-.06,17.46-.06s12.8,0,17.46.06c7.35.06,7.35.09,7.35.27s0,.2-7.35.26C373,156,366.83,156.05,360.24,156.05ZM341,155.73c4.3,0,10.94.07,19.23.07s14.94,0,19.23-.07c-4.29,0-10.94-.08-19.23-.08S345.31,155.68,341,155.73Z"
       style="fill:#e0e0e0"
       id="path396" />
    <path
       d="M370.26,141.11c0,.11-11.05.2-24.68.2s-24.69-.09-24.69-.2,11.05-.2,24.69-.2S370.26,141,370.26,141.11Z"
       style="fill:#e0e0e0"
       id="path398" />
    <path
       d="M345.58,141.44c-6.6,0-12.8,0-17.46-.06-7.36-.06-7.36-.09-7.36-.27s0-.2,7.36-.26c4.66,0,10.86-.06,17.46-.06s12.79,0,17.45.06c7.36.06,7.36.09,7.36.26s0,.21-7.36.27C358.37,141.42,352.17,141.44,345.58,141.44Zm-19.23-.33c4.29,0,10.93.08,19.23.08s14.93,0,19.22-.08c-4.29,0-10.93-.07-19.22-.07S330.64,141.07,326.35,141.11Z"
       style="fill:#e0e0e0"
       id="path400" />
    <path
       d="M430.6,141.11c0,.11-11.05.2-24.69.2s-24.69-.09-24.69-.2,11.06-.2,24.69-.2S430.6,141,430.6,141.11Z"
       style="fill:#e0e0e0"
       id="path402" />
    <path
       d="M405.91,141.44c-6.59,0-12.79,0-17.46-.06-7.35-.06-7.35-.09-7.35-.27s0-.2,7.35-.26c4.67,0,10.87-.06,17.46-.06s12.79,0,17.46.06c7.35.06,7.35.09,7.35.26s0,.21-7.35.27C418.71,141.42,412.51,141.44,405.91,141.44Zm-19.22-.33c4.29,0,10.93.08,19.22.08s14.94,0,19.23-.08c-4.29,0-10.94-.07-19.23-.07S391,141.07,386.69,141.11Z"
       style="fill:#e0e0e0"
       id="path404" />
    <path
       d="M409.62,126.5c0,.11-11.06.2-24.69.2s-24.69-.09-24.69-.2,11.05-.2,24.69-.2S409.62,126.39,409.62,126.5Z"
       style="fill:#e0e0e0"
       id="path406" />
    <path
       d="M384.93,126.82c-6.6,0-12.8,0-17.46,0-7.35-.06-7.35-.1-7.35-.27s0-.21,7.35-.27c4.67,0,10.87-.06,17.46-.06s12.79,0,17.46.06c7.35.06,7.35.09,7.35.27s0,.21-7.35.27C397.72,126.8,391.52,126.82,384.93,126.82Zm-19.24-.32c4.29,0,10.94.07,19.24.07s14.95,0,19.24-.07c-4.29,0-10.94-.08-19.24-.08S370,126.46,365.69,126.5Z"
       style="fill:#e0e0e0"
       id="path408" />
    <path
       d="M443.72,155.73c0,.11-11.05.19-24.68.19s-24.69-.08-24.69-.19,11-.2,24.69-.2S443.72,155.62,443.72,155.73Z"
       style="fill:#e0e0e0"
       id="path410" />
    <path
       d="M419,156.05c-6.6,0-12.8,0-17.46-.06-7.36-.06-7.36-.09-7.36-.26s0-.21,7.36-.27c4.66,0,10.86-.06,17.46-.06s12.79,0,17.45.06c7.36.06,7.36.09,7.36.27s0,.2-7.36.26C431.83,156,425.63,156.05,419,156.05Zm-19.23-.32c4.29,0,10.93.07,19.23.07s14.93,0,19.22-.07c-4.29,0-10.93-.08-19.22-.08S404.1,155.68,399.81,155.73Z"
       style="fill:#e0e0e0"
       id="path412" />
    <path
       d="M436.91,133.81c0,.11-17.16.2-38.33.2s-38.34-.09-38.34-.2,17.16-.2,38.34-.2S436.91,133.7,436.91,133.81Z"
       style="fill:#455a64"
       id="path414" />
    <path
       d="M398.58,134.13c-10.24,0-19.87,0-27.11-.06-8.4,0-10.59-.07-11.15-.15h0c-.16,0-.16-.06-.16-.1s0-.08.15-.11h0c.57-.08,2.75-.11,11.16-.15,7.24,0,16.86-.06,27.11-.06s19.86,0,27.1.06c8.41,0,10.59.07,11.16.15h0c.16,0,.16.06.16.11s0,.07-.16.1h0c-.57.08-2.76.11-11.16.15C418.44,134.11,408.81,134.13,398.58,134.13Zm-29.91-.32c7.06,0,17.9.07,29.91.07s22.84,0,29.9-.07c-7.06-.05-17.9-.08-29.9-.08S375.73,133.76,368.67,133.81Z"
       style="fill:#455a64"
       id="path416" />
    <path
       d="M302.07,111.89c0,.11-4,.2-8.95.2s-9-.09-9-.2,4-.2,9-.2S302.07,111.78,302.07,111.89Z"
       style="fill:#e0e0e0"
       id="path418" />
    <path
       d="M293.12,112.21c-2.4,0-4.65,0-6.34-.06-2.74-.06-2.74-.11-2.74-.26s0-.21,2.74-.27c1.69,0,3.94-.06,6.34-.06s4.64,0,6.33.06c2.74.06,2.74.11,2.74.27s0,.2-2.74.26C297.76,112.19,295.51,112.21,293.12,112.21Zm-7-.32c1.55,0,4,.07,7,.07s5.43,0,7-.07c-1.56,0-4-.08-7-.08S287.68,111.84,286.13,111.89Z"
       style="fill:#e0e0e0"
       id="path420" />
    <path
       d="M302.07,199.56c0,.11-4,.2-8.95.2s-9-.09-9-.2,4-.2,9-.2S302.07,199.45,302.07,199.56Z"
       style="fill:#e0e0e0"
       id="path422" />
    <path
       d="M293.12,199.89c-2.4,0-4.65,0-6.34-.06-2.74-.06-2.74-.11-2.74-.27s0-.2,2.74-.26c1.69,0,3.94-.06,6.34-.06s4.64,0,6.33.06c2.74.06,2.74.11,2.74.26s0,.21-2.74.27C297.76,199.87,295.51,199.89,293.12,199.89Zm-7-.33c1.56.05,4,.08,7,.08s5.42,0,7-.08c-1.56,0-4-.07-7-.07S287.69,199.52,286.13,199.56Z"
       style="fill:#e0e0e0"
       id="path424" />
    <path
       d="M310.94,141.11c0,.11-4,.2-8.95.2s-9-.09-9-.2,4-.2,9-.2S310.94,141,310.94,141.11Z"
       style="fill:#e0e0e0"
       id="path426" />
    <path
       d="M302,141.44c-2.4,0-4.65,0-6.34-.06-2.74-.06-2.74-.11-2.74-.27s0-.2,2.74-.26c1.7,0,4-.06,6.34-.06s4.64,0,6.33.06c2.75.06,2.75.1,2.75.26s0,.21-2.75.27C306.63,141.42,304.38,141.44,302,141.44Zm-7-.33c1.56,0,4,.08,7,.08s5.42,0,7-.08c-1.56,0-4-.07-7-.07S296.56,141.07,295,141.11Z"
       style="fill:#e0e0e0"
       id="path428" />
    <path
       d="M454.46,141.11c0,.11-4,.2-9,.2s-8.95-.09-8.95-.2,4-.2,8.95-.2S454.46,141,454.46,141.11Z"
       style="fill:#FF6841"
       id="path430" />
    <path
       d="M445.5,141.44c-2.39,0-4.64,0-6.33-.06-2.75-.06-2.75-.11-2.75-.27s0-.2,2.75-.26c1.69,0,3.94-.06,6.33-.06s4.64,0,6.34.06c2.74.06,2.74.1,2.74.26s0,.21-2.74.27C450.14,141.42,447.9,141.44,445.5,141.44Zm-7-.33c1.56,0,4,.08,7,.08s5.43,0,7-.08c-1.56,0-4-.07-7-.07S440.08,141.07,438.52,141.11Z"
       style="fill:#FF6841"
       id="path432" />
    <path
       d="M327,170.3c0,.11-7.5.19-16.75.19s-16.76-.08-16.76-.19,7.5-.2,16.76-.2S327,170.19,327,170.3Z"
       style="fill:#FF6841"
       id="path434" />
    <path
       d="M310.26,170.62c-4.48,0-8.68,0-11.85-.06-5-.06-5-.09-5-.26s0-.21,5-.27c3.16,0,7.37-.06,11.85-.06s8.68,0,11.84.06c5,.06,5,.09,5,.27s0,.2-5,.26C318.93,170.6,314.73,170.62,310.26,170.62Zm-13.07-.32c2.92,0,7.44.07,13.07.07s10.14,0,13.06-.07c-2.92-.05-7.44-.08-13.06-.08S300.11,170.25,297.19,170.3Z"
       style="fill:#FF6841"
       id="path436" />
    <path
       d="M365.75,170.3c0,.11-7.5.19-16.75.19s-16.76-.08-16.76-.19,7.5-.2,16.76-.2S365.75,170.19,365.75,170.3Z"
       style="fill:#e0e0e0"
       id="path438" />
    <path
       d="M349,170.62c-4.48,0-8.68,0-11.85-.06-5-.06-5-.09-5-.26s0-.21,5-.27c3.16,0,7.37-.06,11.85-.06s8.68,0,11.84.06c5,.06,5,.09,5,.27s0,.2-5,.26C357.67,170.6,353.47,170.62,349,170.62Zm-13.07-.32c2.92,0,7.44.07,13.07.07s10.14,0,13.06-.07c-2.92-.05-7.44-.08-13.06-.08S338.85,170.25,335.93,170.3Z"
       style="fill:#e0e0e0"
       id="path440" />
    <path
       d="M350.94,177.6c0,.11-11.05.2-24.69.2s-24.68-.09-24.68-.2,11.05-.2,24.68-.2S350.94,177.49,350.94,177.6Z"
       style="fill:#e0e0e0"
       id="path442" />
    <path
       d="M326.25,177.93c-6.59,0-12.79,0-17.45-.06-7.36-.06-7.36-.09-7.36-.27s0-.2,7.36-.26c4.66,0,10.86-.06,17.45-.06s12.8,0,17.46.06c7.36.06,7.36.09,7.36.26s0,.21-7.36.27C339.05,177.91,332.85,177.93,326.25,177.93ZM307,177.6c4.29,0,10.93.08,19.22.08s14.94,0,19.23-.08c-4.29,0-10.93-.07-19.23-.07S311.32,177.56,307,177.6Z"
       style="fill:#e0e0e0"
       id="path444" />
    <path
       d="M350.94,184.91c0,.11-11.05.2-24.69.2s-24.68-.09-24.68-.2,11.05-.2,24.68-.2S350.94,184.8,350.94,184.91Z"
       style="fill:#e0e0e0"
       id="path446" />
    <path
       d="M326.25,185.23c-6.59,0-12.79,0-17.45-.06-7.36-.06-7.36-.09-7.36-.26s0-.21,7.36-.27c4.66,0,10.86-.06,17.45-.06s12.79,0,17.46.06c7.36.06,7.36.09,7.36.27s0,.2-7.36.26C339.05,185.21,332.85,185.23,326.25,185.23ZM307,184.91c4.29,0,10.94.07,19.24.07s14.95,0,19.24-.07c-4.29,0-10.93-.08-19.24-.08S311.3,184.86,307,184.91Z"
       style="fill:#e0e0e0"
       id="path448" />
    <path
       d="M370.26,192.21c0,.11-11.05.2-24.68.2s-24.69-.09-24.69-.2,11.05-.19,24.69-.19S370.26,192.1,370.26,192.21Z"
       style="fill:#e0e0e0"
       id="path450" />
    <path
       d="M345.58,192.54c-6.59,0-12.79,0-17.46-.06-7.36-.06-7.36-.09-7.36-.27s0-.2,7.36-.26c4.66,0,10.86-.06,17.46-.06s12.79,0,17.45.06c7.36.06,7.36.09,7.36.26s0,.21-7.36.27C358.36,192.52,352.16,192.54,345.58,192.54Zm-19.25-.33c4.3,0,10.94.08,19.25.08s14.94,0,19.24-.08c-4.3,0-10.94-.07-19.24-.07S330.63,192.17,326.33,192.21Z"
       style="fill:#e0e0e0"
       id="path452" />
    <path
       d="M430.6,192.21c0,.11-11.05.2-24.69.2s-24.69-.09-24.69-.2,11.06-.19,24.69-.19S430.6,192.1,430.6,192.21Z"
       style="fill:#e0e0e0"
       id="path454" />
    <path
       d="M405.91,192.54c-6.59,0-12.79,0-17.46-.06-7.35-.06-7.35-.09-7.35-.27s0-.2,7.35-.26c4.67,0,10.87-.06,17.46-.06s12.8,0,17.46.06c7.35.06,7.35.09,7.35.26s0,.21-7.35.27C418.7,192.52,412.5,192.54,405.91,192.54Zm-19.24-.33c4.29,0,10.94.08,19.24.08s14.95,0,19.24-.08c-4.29,0-10.94-.07-19.24-.07S391,192.17,386.67,192.21Z"
       style="fill:#e0e0e0"
       id="path456" />
    <path
       d="M409.62,177.6c0,.11-11.06.2-24.69.2s-24.69-.09-24.69-.2,11.05-.2,24.69-.2S409.62,177.49,409.62,177.6Z"
       style="fill:#e0e0e0"
       id="path458" />
    <path
       d="M384.93,177.93c-6.59,0-12.79,0-17.46-.06-7.35-.06-7.35-.09-7.35-.27s0-.2,7.35-.26c4.66,0,10.86-.06,17.46-.06s12.79,0,17.46.06c7.35.06,7.35.09,7.35.26s0,.21-7.35.27C397.72,177.91,391.52,177.93,384.93,177.93Zm-19.23-.33c4.29,0,10.94.08,19.23.08s14.93,0,19.22-.08c-4.29,0-10.93-.07-19.22-.07S370,177.56,365.7,177.6Z"
       style="fill:#e0e0e0"
       id="path460" />
    <path
       d="M436.91,184.91c0,.11-17.16.2-38.33.2s-38.34-.09-38.34-.2,17.16-.2,38.34-.2S436.91,184.8,436.91,184.91Z"
       style="fill:#455a64"
       id="path462" />
    <path
       d="M398.58,185.23c-10.25,0-19.87,0-27.11-.06-8.41,0-10.59-.07-11.16-.15h0v0c-.16,0-.16-.06-.16-.1s0-.08.15-.11h0c.57-.09,2.76-.11,11.16-.16,7.25,0,16.88-.06,27.11-.06s19.85,0,27.1.06c8.41.05,10.59.07,11.16.16h0c.16,0,.16.06.16.11s0,.08-.16.1v0h0c-.57.08-2.75.11-11.16.15C418.44,185.21,408.82,185.23,398.58,185.23Zm-29.93-.32c7.06,0,17.91.07,29.93.07s22.87,0,29.93-.07c-7.06,0-17.91-.08-29.93-.08S375.71,184.86,368.65,184.91Z"
       style="fill:#455a64"
       id="path464" />
    <path
       d="M310.94,192.21c0,.11-4,.2-8.95.2s-9-.09-9-.2,4-.19,9-.19S310.94,192.1,310.94,192.21Z"
       style="fill:#e0e0e0"
       id="path466" />
    <path
       d="M302,192.54c-2.39,0-4.64,0-6.34-.06-2.74-.06-2.74-.11-2.74-.27s0-.2,2.74-.26c1.69,0,3.94-.06,6.34-.06s4.64,0,6.33.06c2.75.06,2.75.11,2.75.26s0,.21-2.75.27C306.63,192.52,304.38,192.54,302,192.54Zm-7-.33c1.56,0,4,.08,7,.08s5.43,0,7-.08c-1.56,0-4-.07-7-.07S296.56,192.17,295,192.21Z"
       style="fill:#e0e0e0"
       id="path468" />
    <path
       d="M454.46,192.21c0,.11-4,.2-9,.2s-8.95-.09-8.95-.2,4-.19,8.95-.19S454.46,192.1,454.46,192.21Z"
       style="fill:#FF6841"
       id="path470" />
    <path
       d="M445.5,192.54c-2.39,0-4.64,0-6.33-.06-2.75-.06-2.75-.11-2.75-.27s0-.2,2.75-.26c1.69,0,3.94-.06,6.33-.06s4.64,0,6.34.06c2.74.06,2.74.11,2.74.26s0,.21-2.74.27C450.14,192.52,447.89,192.54,445.5,192.54Zm-7-.33c1.56,0,4,.08,7,.08s5.43,0,7-.08c-1.56,0-4-.07-7-.07S440.07,192.17,438.51,192.21Z"
       style="fill:#FF6841"
       id="path472" />
    <rect
       x="504.18"
       y="62.1"
       width="67.1"
       height="47.83"
       style="fill:#5ba3cd;fill-opacity:1"
       id="rect474" />
    <path
       d="M571.81,69.2c0,.16-15.14.3-33.83.3s-33.83-.14-33.83-.3,15.15-.29,33.83-.29S571.81,69,571.81,69.2Z"
       style="fill:#232323;fill-opacity:1"
       id="path476" />
    <path
       d="M509.66,65.71a.91.91,0,1,1-.9-.79A.85.85,0,0,1,509.66,65.71Z"
       style="fill:#232323;fill-opacity:1"
       id="path478" />
    <path
       d="M513,65.71a.91.91,0,1,1-.9-.79A.85.85,0,0,1,513,65.71Z"
       style="fill:#232323;fill-opacity:1"
       id="path480" />
    <path
       d="M516.25,65.71a.86.86,0,0,1-.91.79.8.8,0,1,1,0-1.58A.86.86,0,0,1,516.25,65.71Z"
       style="fill:#232323;fill-opacity:1"
       id="path482" />
    <path
       d="M529,88.28c0,2.87-2.08,4.6-5.51,4.6h-3.62v4.26h-1.43V83.65h5C526.92,83.65,529,85.39,529,88.28Zm-1.42,0c0-2.16-1.43-3.39-4.13-3.39h-3.58v6.74h3.58C526.15,91.63,527.58,90.4,527.58,88.28Z"
       style="fill:#232323;fill-opacity:1"
       id="path484" />
    <path
       d="M543.35,83.65V97.14h-1.41V90.92H533.5v6.22h-1.42V83.65h1.42v6h8.44v-6Z"
       style="fill:#232323;fill-opacity:1"
       id="path486" />
    <path
       d="M558.3,88.28c0,2.87-2.08,4.6-5.51,4.6h-3.63v4.26h-1.42V83.65h5C556.22,83.65,558.3,85.39,558.3,88.28Zm-1.43,0c0-2.16-1.42-3.39-4.12-3.39h-3.59v6.74h3.59C555.45,91.63,556.87,90.4,556.87,88.28Z"
       style="fill:#232323;fill-opacity:1"
       id="path488" />
    <rect
       x="208.61"
       y="50.22"
       width="41.15"
       height="29.33"
       style="fill:#FF6841"
       id="rect490" />
    <path
       d="M222.49,63.84v5.83h-1.35V67.28h-2.65v2.39h-1.34V63.84h1.34v2.3h2.65v-2.3Z"
       style="fill:#fff"
       id="path492" />
    <path
       d="M225.07,64.94h-1.86v-1.1h5.07v1.1h-1.86v4.73h-1.35Z"
       style="fill:#fff"
       id="path494" />
    <path
       d="M236.41,63.84h1.35v4.73h2.92v1.1h-4.27Z"
       style="fill:#fff"
       id="path496" />
    <path
       d="M234.33,69.67v-3.5l-1.71,2.88H232l-1.7-2.8v3.42H229V63.84h1.12l2.18,3.62,2.14-3.62h1.11v5.83Z"
       style="fill:#fff"
       id="path498" />
    <path
       d="M250.08,54.58c0,.07-9.29.12-20.74.12s-20.75-.05-20.75-.12,9.29-.13,20.75-.13S250.08,54.5,250.08,54.58Z"
       style="fill:#fff"
       id="path500" />
    <path
       d="M212,52.43a.56.56,0,1,1-.56-.48A.53.53,0,0,1,212,52.43Z"
       style="fill:#fff"
       id="path502" />
    <path
       d="M214,52.43a.56.56,0,1,1-.56-.48A.53.53,0,0,1,214,52.43Z"
       style="fill:#fff"
       id="path504" />
    <path
       d="M216,52.43a.56.56,0,1,1-.56-.48A.53.53,0,0,1,216,52.43Z"
       style="fill:#fff"
       id="path506" />
    <path
       d="M120.4,112.09a9.06,9.06,0,0,1,9.41-9.2,8.63,8.63,0,0,1,6.45,2.52l-.83.85a7.6,7.6,0,0,0-5.57-2.15,8,8,0,1,0,0,16,7.63,7.63,0,0,0,5.57-2.18l.83.86a8.68,8.68,0,0,1-6.45,2.53A9.06,9.06,0,0,1,120.4,112.09Z"
       style="fill:#5ba3cd;fill-opacity:1"
       id="path508" />
    <path
       d="M138.74,118.82l.6-1a8.64,8.64,0,0,0,6,2.28c3.63,0,5.24-1.58,5.24-3.55,0-5.44-11.32-2.18-11.32-8.86,0-2.56,2-4.82,6.42-4.82a9.68,9.68,0,0,1,5.47,1.64l-.5,1.06a8.92,8.92,0,0,0-5-1.53c-3.52,0-5.1,1.63-5.1,3.63,0,5.44,11.32,2.22,11.32,8.8,0,2.57-2,4.79-6.53,4.79A9.31,9.31,0,0,1,138.74,118.82Z"
       style="fill:#5ba3cd;fill-opacity:1"
       id="path510" />
    <path
       d="M154.52,118.82l.59-1a8.67,8.67,0,0,0,6,2.28c3.62,0,5.23-1.58,5.23-3.55,0-5.44-11.32-2.18-11.32-8.86,0-2.56,2-4.82,6.42-4.82a9.66,9.66,0,0,1,5.47,1.64l-.49,1.06a8.93,8.93,0,0,0-5-1.53c-3.52,0-5.1,1.63-5.1,3.63,0,5.44,11.32,2.22,11.32,8.8,0,2.57-2.05,4.79-6.53,4.79A9.29,9.29,0,0,1,154.52,118.82Z"
       style="fill:#5ba3cd;fill-opacity:1"
       id="path512" />
    <path
       d="M183.09,135.66s0-.33,0-1,0-1.57,0-2.76c0-2.43,0-6-.06-10.49,0-9.06-.08-22.07-.14-37.95l.26.26-80.76.06h0l.32-.32c0,18.53,0,36.16,0,52.16l-.3-.29,58.1.14,16.66.08,4.45,0h1.15l.41,0-.37,0-1.12,0-4.39,0-16.6.08-58.29.15H102v-.3c0-16,0-33.63,0-52.16v-.32h.33l80.76.07h.25v.25c-.06,16-.1,29-.13,38.11,0,4.49-.05,8-.07,10.43,0,1.17,0,2.08,0,2.71S183.09,135.66,183.09,135.66Z"
       style="fill:#5ba3cd;fill-opacity:1"
       id="path514" />
    <path
       d="M183.09,91.24c0,.18-18.09.32-40.4.32s-40.4-.14-40.4-.32,18.08-.32,40.4-.32S183.09,91.07,183.09,91.24Z"
       style="fill:#5ba3cd;fill-opacity:1"
       id="path516" />
    <path
       d="M108.29,87.44a.93.93,0,0,1-1,.86.87.87,0,1,1,1-.86Z"
       style="fill:#5ba3cd;fill-opacity:1"
       id="path518" />
    <path
       d="M111.89,87.44a.94.94,0,0,1-1,.86.87.87,0,1,1,0-1.73A.94.94,0,0,1,111.89,87.44Z"
       style="fill:#5ba3cd;fill-opacity:1"
       id="path520" />
    <path
       d="M115.48,87.44a1,1,0,1,1-1-.87A.93.93,0,0,1,115.48,87.44Z"
       style="fill:#5ba3cd;fill-opacity:1"
       id="path522" />
  </g>
  <g
     id="g826"
     transform="matrix(0.78955868,0,0,0.78955868,-463.33492,365.48334)">
    <circle
       cx="1073.6263"
       cy="-238.26741"
       r="44.850201"
       fill="#a0616a"
       id="circle4"
       style="fill:#fbdebe;fill-opacity:1;stroke-width:0.609908" />
    <path
       d="m 1040.1511,-215.84232 c 0,0 8.4501,63.70032 -4.55,70.8503 -13,7.14997 77.3504,7.80003 77.3504,7.80003 0,0 -20.1501,-55.25023 -11.0501,-72.15034 z"
       fill="#a0616a"
       id="path6-0"
       style="fill:#fbdebe;fill-opacity:1;stroke-width:0.609908" />
    <path
       d="m 1178.9261,-136.86976 -7.5141,34.21582 -15.8881,72.389918 -0.4757,3.964398 -5.4831,45.895541 -3.6472,30.489276 -2.4458,20.480694 c -14.8695,7.642141 -25.6466,12.917841 -25.6466,12.917841 0,0 -0.927,-4.647495 -2.4213,-10.594093 -10.4355,3.128825 -29.7452,8.319138 -46.109,9.355981 5.9588,6.641893 8.6973,12.881247 4.9829,17.486048 -11.2101,13.881496 -57.4899,-15.198895 -73.6768,-26.04305 a 43.816219,43.816219 0 0 0 -0.4269,7.84341 l -12.38726,-9.526755 1.22591,-21.920076 2.06759,-37.088476 2.59821,-46.511546 a 48.831714,48.831714 0 0 1 -2.05539,-6.117373 c -3.79363,-13.491154 -8.39843,-40.430769 -11.92979,-63.021738 -2.84217,-18.18135 -4.97685,-33.54492 -5.42818,-36.81402 -0.061,-0.42694 -0.0915,-0.6465 -0.0915,-0.6465 l 68.57191,-30.30021 c 4.8732,11.30159 27.6288,14.69877 27.6288,14.69877 18.8523,-1.2991 33.6303,-11.24059 33.6303,-11.24059 z"
       fill="#d0cde1"
       id="path8-0"
       style="stroke-width:0.609908;fill:#5ba3cd;fill-opacity:1" />
    <path
       d="m 1123.028,70.486624 c 0,0 -2.9031,0.994149 -7.6238,2.403035 -10.4355,3.128826 -29.7452,8.319139 -46.109,9.355981 -14.0889,0.902664 -25.9943,-1.268607 -28.1717,-10.459913 -0.9331,-3.952201 0.3904,-7.203008 3.2752,-9.874403 8.6119,-7.983689 31.1053,-10.844156 48.9451,-11.826107 5.0379,-0.274458 9.6975,-0.402539 13.5766,-0.451331 6.587,-0.08539 10.9051,0.04879 10.9051,0.04879 l 0.1037,0.402539 z"
       fill="#a0616a"
       id="path10-5"
       style="stroke-width:0.609908" />
    <path
       d="m 1036.3151,-280.69158 -8.3859,-3.35723 c 0,0 17.5341,-19.30405 41.9296,-17.62537 l -6.8614,-7.55383 c 0,0 16.7718,-6.71438 32.0188,10.91098 8.0151,9.26524 17.2887,20.15611 23.0697,32.42451 h 8.9807 l -3.7482,8.25314 13.1188,8.25315 -13.4651,-1.48244 a 46.119212,46.119212 0 0 1 0.3654,13.68938 17.712153,17.712153 0 0 1 -6.486,11.58695 v 0 c 0,0 -10.4001,-21.52707 -10.4001,-24.88431 v 8.39308 c 0,0 -8.3859,-7.55374 -8.3859,-12.58954 l -4.574,5.87513 -2.2871,-9.23242 -28.207,9.23242 4.5741,-7.55371 -17.5341,2.5179 6.8614,-9.23242 c 0,0 -19.8212,10.91098 -20.5837,20.14342 -0.7622,9.23229 -6.564,17.98049 -6.564,17.98049 0,0 -15.5442,-43.15974 6.564,-55.74928 z"
       fill="#2f2e41"
       id="path12-5"
       style="stroke-width:0.609908;fill:#232323;fill-opacity:1" />
    <path
       d="m 1227.676,20.431508 c -4.5683,4.952449 -15.8881,12.411618 -29.6111,20.486793 -5.1049,3.000745 -10.5392,6.092976 -16.0832,9.16691 -13.2289,7.337188 -27.0799,14.607285 -38.5096,20.480694 -14.8695,7.642142 -25.6466,12.917842 -25.6466,12.917842 0,0 -0.927,-4.647496 -2.4213,-10.594094 -2.0005,-7.959293 -5.0135,-18.248433 -8.1545,-22.804442 -0.1098,-0.158576 -0.2195,-0.304953 -0.3293,-0.451331 -0.9149,-1.201518 -1.8359,-1.902912 -2.7446,-1.902912 l 45.3893,-28.135033 19.6146,-12.1615559 -14.1315,-33.7339841 -17.7239,-42.315383 10.6977,-34.038942 10.7527,-34.21581 h 20.1513 c 0,0 6.6724,14.56459 15.205,34.87454 1.2747,3.037344 2.5921,6.202764 3.9339,9.471868 17.5532,42.693489 39.4367,102.311948 29.6111,112.95484 z"
       fill="#d0cde1"
       id="path14-7"
       style="stroke-width:0.609908;fill:#5ba3cd;fill-opacity:1" />
    <path
       d="m 1074.2781,99.731695 c -11.2101,13.881495 -57.4899,-15.198895 -73.6768,-26.043051 -3.52528,-2.360342 -5.62336,-3.854615 -5.62336,-3.854615 l 14.80856,-19.748806 4.6902,-6.251551 c 0,0 4.1961,2.226162 10.3989,5.849013 0.2257,0.134179 0.4513,0.268359 0.6831,0.402538 5.3489,3.141024 12.064,7.245702 18.84,11.826107 9.3499,6.324741 18.8035,13.539947 24.8965,20.334317 5.9588,6.641874 8.6973,12.881216 4.9829,17.486048 z"
       fill="#a0616a"
       id="path16-4"
       style="stroke-width:0.609908" />
    <path
       d="m 1024.8756,49.682685 a 29.142308,29.142308 0 0 0 -4.9402,0.402538 c -14.0218,2.409135 -18.157,15.10131 -19.3341,23.603421 a 43.816219,43.816219 0 0 0 -0.427,7.843411 l -12.38717,-9.526756 -4.51332,-3.470373 C 972.41136,64.7474 962.73213,58.02012 954.3398,50.085223 A 145.45224,145.45224 0 0 1 934.85325,26.975828 203.80075,203.80075 0 0 1 919.77634,1.1157495 19.019161,19.019161 0 0 1 919.51408,-15.016304 l 15.33917,-34.185316 22.4202,-49.963623 q 0.24698,-1.783927 0.54279,-3.488667 c 4.44623,-25.49414 16.35772,-36.81402 16.35772,-36.81402 h 9.09982 l 6.08688,36.81402 7.56285,45.73696 -5.30009,17.284779 L 979.37647,0.28624481 991.0806,12.996717 Z"
       fill="#d0cde1"
       id="path18-1"
       style="stroke-width:0.609908;fill:#5ba3cd;fill-opacity:1" />
    <path
       d="m 1035.1747,-56.880465 7.7793,9.075917 c 2.8902,-0.551057 5.9085,-1.198633 9.0171,-1.92588 l -2.2344,-7.150037 5.4633,6.373801 c 32.9334,-8.100053 73.7541,-23.848225 73.7541,-23.848225 0,0 -44.0701,3.231418 -76.9753,-3.957452 -14.559,-3.180722 -29.5383,4.036435 -35.5127,17.688782 -3.4726,7.935281 -2.9272,14.810231 9.3889,14.810231 a 81.346292,81.346292 0 0 0 12.4133,-1.167594 z"
       fill="#5ba3cd"
       id="path20-1"
       style="stroke-width:0.609908;fill:#ffffff;fill-opacity:1" />
    <path
       d="m 1212.5198,92.290817 v 3.702139 a 8.1362394,8.1362394 0 0 1 -0.555,2.970249 8.3481578,8.3481578 0 0 1 -0.5917,1.219815 8.19562,8.19562 0 0 1 -7.0444,4.00099 H 931.97452 a 8.1955712,8.1955712 0 0 1 -7.04444,-4.00099 8.3450534,8.3450534 0 0 1 -0.59161,-1.219815 8.1362394,8.1362394 0 0 1 -0.55501,-2.970249 v -3.702139 a 8.1888683,8.1888683 0 0 1 8.19106,-8.191058 h 15.69902 v -1.726038 a 0.34098709,0.34098709 0 0 1 0.34154,-0.341548 h 8.19106 a 0.34098709,0.34098709 0 0 1 0.34155,0.341548 v 1.726038 h 5.11709 v -1.726038 a 0.34098709,0.34098709 0 0 1 0.34155,-0.341548 h 8.19106 a 0.34098709,0.34098709 0 0 1 0.34155,0.341548 v 1.726038 h 5.12322 v -1.726038 a 0.34098709,0.34098709 0 0 1 0.34155,-0.341548 h 8.19106 a 0.34098709,0.34098709 0 0 1 0.34154,0.341548 v 1.726038 h 5.11713 v -1.726038 a 0.34098709,0.34098709 0 0 1 0.34155,-0.341548 h 8.19105 a 0.34098709,0.34098709 0 0 1 0.34155,0.341548 v 1.726038 h 5.11711 v -1.726038 a 0.34098709,0.34098709 0 0 1 0.3416,-0.341548 h 8.191 a 0.34098709,0.34098709 0 0 1 0.3416,0.341548 v 1.726038 h 5.1232 v -1.726038 a 0.34098709,0.34098709 0 0 1 0.3415,-0.341548 h 8.1911 a 0.34098709,0.34098709 0 0 1 0.3415,0.341548 v 1.726038 h 5.1172 v -1.726038 a 0.34098709,0.34098709 0 0 1 0.3415,-0.341548 h 64.1623 a 0.34098709,0.34098709 0 0 1 0.3415,0.341548 v 1.726038 h 5.1233 v -1.726038 a 0.34098709,0.34098709 0 0 1 0.3415,-0.341548 h 8.1911 a 0.34493929,0.34493929 0 0 1 0.3415,0.341548 v 1.726038 h 5.1172 v -1.726038 a 0.34098709,0.34098709 0 0 1 0.3415,-0.341548 h 8.1911 a 0.34099319,0.34099319 0 0 1 0.3416,0.341548 v 1.726038 h 5.1171 v -1.726038 a 0.34098709,0.34098709 0 0 1 0.3415,-0.341548 h 8.1911 a 0.34098709,0.34098709 0 0 1 0.3415,0.341548 v 1.726038 h 5.1233 v -1.726038 a 0.34098709,0.34098709 0 0 1 0.3415,-0.341548 h 8.1911 a 0.33971848,0.33971848 0 0 1 0.3354,0.341548 v 1.726038 h 5.1232 v -1.726038 a 0.34098709,0.34098709 0 0 1 0.3416,-0.341548 h 8.191 a 0.34098709,0.34098709 0 0 1 0.3416,0.341548 v 1.726038 h 5.1171 v -1.726038 a 0.34098709,0.34098709 0 0 1 0.3416,-0.341548 h 8.191 a 0.34098709,0.34098709 0 0 1 0.3416,0.341548 v 1.726038 h 23.89 a 8.1888744,8.1888744 0 0 1 8.1911,8.191058 z"
       fill="#3f3d56"
       id="path22-4"
       style="stroke-width:0.609908;fill:#232323;fill-opacity:1" />
    <rect
       x="844.65405"
       y="98.963211"
       width="447.06192"
       height="1.219815"
       fill="#3f3d56"
       id="rect24"
       style="stroke-width:0.609908;fill:#232323;fill-opacity:1" />
    <path
       d="m 1190.5901,-63.619516 h -101.5148 v -2.092306 h -46.0307 v 2.092306 H 941.11133 a 6.8667108,6.8667108 0 0 0 -6.86671,6.86671 V 82.25213 a 6.8667291,6.8667291 0 0 0 6.86671,6.866735 h 249.47877 a 6.8667291,6.8667291 0 0 0 6.8667,-6.866735 V -56.752806 a 6.8667047,6.8667047 0 0 0 -6.8667,-6.86671 z"
       fill="#3f3d56"
       id="path26-5"
       style="stroke-width:0.609908;fill:#232323;fill-opacity:1" />
    <circle
       cx="1066.0504"
       cy="-15.089495"
       r="15.247687"
       fill="none"
       stroke="#d0cde1"
       stroke-miterlimit="10"
       stroke-width="1.21982"
       id="circle28" />
    <circle
       cx="1061.1713"
       cy="-9.6003275"
       r="15.247687"
       fill="#d0cde1"
       id="circle30"
       style="stroke-width:0.609908" />
    <rect
       x="856.81915"
       y="92.801033"
       width="17.07741"
       height="17.07741"
       fill="#d0cde1"
       id="rect32"
       style="stroke-width:0.609908" />
    <path
       d="m 863.53054,79.383308 v 20.736852 h 20.73685 V 79.383308 Z M 883.36473,99.2175 H 864.4271 V 80.285971 h 18.93763 z"
       fill="#3f3d56"
       id="path34-2"
       style="stroke-width:0.609908" />
    <rect
       x="1252.0392"
       y="92.801033"
       width="17.07741"
       height="17.07741"
       fill="#d0cde1"
       id="rect36"
       style="stroke-width:0.609908" />
    <path
       d="m 1258.7506,79.383308 v 20.736852 h 20.7369 V 79.383308 Z m 19.8342,19.834192 h -18.9376 V 80.285971 h 18.9376 z"
       fill="#3f3d56"
       id="path38-4"
       style="stroke-width:0.609908" />
    <path
       d="m 899.60269,55.310899 c 0.5691,19.486545 -10.81679,26.627903 -25.10574,27.045202 q -0.49786,0.01452 -0.99125,0.01781 -0.99396,0.0076 -1.96862,-0.03312 C 858.61415,81.80431 848.3849,74.944534 847.85565,56.822108 c -0.5477,-18.75446 22.7306,-43.122242 24.47711,-44.924732 l 0.003,-0.0018 c 0.0663,-0.06869 0.10032,-0.103075 0.10032,-0.103075 0,0 26.59745,24.033314 27.1665,43.518255 z"
       fill="#d0cde1"
       id="path70-1"
       style="fill:#f9b175;fill-opacity:1;stroke-width:0.609908" />
    <path
       d="m 873.4682,79.402892 9.07684,-13.498168 -9.05828,14.950315 0.0189,1.518883 q -0.99396,0.0076 -1.96862,-0.03312 l 0.45021,-19.524243 -0.0123,-0.150647 0.0166,-0.02909 0.0431,-1.844927 -9.94021,-14.432028 9.92848,13.051209 0.0353,0.389963 0.34004,-14.751333 -8.58567,-14.962708 8.61011,12.371327 -0.0899,-30.560953 2e-4,-0.10172 0.003,0.100025 0.56993,24.086144 7.82481,-9.783807 -7.79919,11.858773 0.17077,13.194739 7.20044,-12.87755 -7.17397,14.817404 0.0951,7.336925 10.47138,-17.93827 -10.43954,20.497814 z"
       fill="#3f3d56"
       id="path72-5"
       style="stroke-width:0.609908" />
    <path
       d="m 1294.8228,55.310899 c 0.5691,19.486545 -10.8168,26.627903 -25.1058,27.045202 q -0.4978,0.01452 -0.9912,0.01781 -0.994,0.0076 -1.9687,-0.03312 c -12.9229,-0.536481 -23.1521,-7.396257 -23.6814,-25.518683 -0.5477,-18.75446 22.7306,-43.122242 24.4771,-44.924732 v -0.0018 c 0.066,-0.06869 0.1003,-0.103075 0.1003,-0.103075 0,0 26.5974,24.033314 27.1665,43.518255 z"
       fill="#d0cde1"
       id="path74-1"
       style="fill:#f9b175;fill-opacity:1;stroke-width:0.609908" />
    <path
       d="m 1268.6883,79.402892 9.0768,-13.498168 -9.0583,14.950315 0.019,1.518883 q -0.9939,0.0076 -1.9686,-0.03312 l 0.4502,-19.524243 -0.012,-0.150647 0.017,-0.02909 0.043,-1.844927 -9.9402,-14.432028 9.9285,13.051209 0.035,0.389963 0.3401,-14.751333 -8.5857,-14.962708 8.6101,12.371327 -0.09,-30.560953 2e-4,-0.10172 v 0.100025 l 0.5699,24.086144 7.8248,-9.783807 -7.7992,11.858773 0.1708,13.194739 7.2005,-12.87755 -7.174,14.817404 0.095,7.336925 10.4714,-17.93827 -10.4395,20.497814 z"
       fill="#3f3d56"
       id="path76-5"
       style="stroke-width:0.609908" />
  </g>
</svg>
