<?xml version="1.0" encoding="UTF-8" standalone="no"?>
<svg
   id="eab38be6-400f-4307-af4c-8f24956b1905"
   data-name="Layer 1"
   width="1080"
   height="1080"
   viewBox="0 0 1080 1080"
   version="1.1"
   sodipodi:docname="undraw_Website_setup_re_d4y9.svg"
   inkscape:version="1.1 (c68e22c387, 2021-05-23)"
   xmlns:inkscape="http://www.inkscape.org/namespaces/inkscape"
   xmlns:sodipodi="http://sodipodi.sourceforge.net/DTD/sodipodi-0.dtd"
   xmlns="http://www.w3.org/2000/svg"
   xmlns:svg="http://www.w3.org/2000/svg"
   xmlns:rdf="http://www.w3.org/1999/02/22-rdf-syntax-ns#"
   xmlns:cc="http://creativecommons.org/ns#"
   xmlns:dc="http://purl.org/dc/elements/1.1/">
  <metadata
     id="metadata62">
    <rdf:RDF>
      <cc:Work
         rdf:about="">
        <dc:format>image/svg+xml</dc:format>
        <dc:type
           rdf:resource="http://purl.org/dc/dcmitype/StillImage" />
      </cc:Work>
    </rdf:RDF>
  </metadata>
  <defs
     id="defs60" />
  <sodipodi:namedview
     pagecolor="#ffffff"
     bordercolor="#666666"
     borderopacity="1"
     objecttolerance="10"
     gridtolerance="10"
     guidetolerance="10"
     inkscape:pageopacity="0"
     inkscape:pageshadow="2"
     inkscape:window-width="1366"
     inkscape:window-height="705"
     id="namedview58"
     showgrid="false"
     inkscape:zoom="0.43968633"
     inkscape:cx="826.72573"
     inkscape:cy="492.39648"
     inkscape:window-x="-8"
     inkscape:window-y="-8"
     inkscape:window-maximized="1"
     inkscape:current-layer="eab38be6-400f-4307-af4c-8f24956b1905"
     inkscape:pagecheckerboard="0"
     width="1080px" />
  <path
     d="m 690.13918,904.72254 v -92.76232 c 0,0 36.15043,65.76452 0,92.76232 z"
     fill="#f1f1f1"
     id="path2"
     style="fill:#f9b175;fill-opacity:1;stroke-width:1.28231" />
  <path
     d="m 692.37224,904.70623 -68.33382,-62.73222 c 0,0 72.89315,17.84408 68.33382,62.73222 z"
     fill="#f1f1f1"
     id="path4"
     style="fill:#f9b175;fill-opacity:1;stroke-width:1.28231" />
  <rect
     id="f54375ad-557d-4249-95e2-413e25c77bd8"
     data-name="Rectangle 62"
     x="0.49882159"
     y="204.87166"
     width="1079.4626"
     height="512.22369"
     fill="#e5e5e5"
     style="stroke-width:1.28231" />
  <rect
     id="eb84611c-d49d-4ce2-b538-4fee0a7e188d"
     data-name="Rectangle 75"
     x="31.366415"
     y="248.79573"
     width="1017.7289"
     height="427.36426"
     fill="#ffffff"
     style="stroke-width:1.28231" />
  <rect
     id="a33b5263-04c3-449f-a8ad-1420252c1e48"
     data-name="Rectangle 80"
     width="1079.4626"
     height="45.858788"
     fill="#f9b175"
     x="0.038536359"
     y="175.27747"
     style="stroke-width:1.28231" />
  <circle
     id="a01a8c4b-bf8b-4728-9381-d6cbaed15ee5"
     data-name="Ellipse 90"
     cx="34.117302"
     cy="198.12196"
     r="8.4997549"
     fill="#ffffff"
     style="stroke-width:1.28231" />
  <circle
     id="a70f271b-ee75-4447-9507-72af025f0784"
     data-name="Ellipse 91"
     cx="66.379578"
     cy="198.12196"
     r="8.4997549"
     fill="#ffffff"
     style="stroke-width:1.28231" />
  <circle
     id="b6ae4294-4107-4abd-ba05-1d458fcbc8d7"
     data-name="Ellipse 92"
     cx="98.643341"
     cy="198.12196"
     r="8.4997549"
     fill="#ffffff"
     style="stroke-width:1.28231" />
  <path
     id="a98f5d70-28fc-4129-b4f3-463d07786f2f"
     data-name="Path 680"
     d="m 198.10455,346.08515 a 4.19059,4.19059 0 0 0 0,8.38118 h 114.50132 a 4.19059,4.19059 0 1 0 0,-8.38118 z"
     fill="#3f3d56"
     style="stroke-width:1.28231" />
  <path
     id="a5717240-4d8d-4c71-83bc-6deeb889f166"
     data-name="Path 680"
     d="m 133.34788,403.78911 a 4.19059,4.19059 0 0 0 0,8.38118 h 244.01466 a 4.19059,4.19059 0 1 0 0,-8.38118 z"
     fill="#cccccc"
     style="stroke-width:1.28231" />
  <path
     id="f9c6f13d-6e3a-4758-9844-a0f5d5c969ce"
     data-name="Path 680"
     d="m 133.34788,437.12917 a 4.19059,4.19059 0 0 0 0,8.38118 h 244.01466 a 4.19059,4.19059 0 1 0 0,-8.38118 z"
     fill="#cccccc"
     style="stroke-width:1.28231" />
  <path
     id="bf808dfd-2bb2-4793-b7c6-d8671bf7e9b4"
     data-name="Path 680"
     d="m 133.34788,470.46924 a 4.19059,4.19059 0 0 0 0,8.38118 h 244.01466 a 4.19059,4.19059 0 1 0 0,-8.38118 z"
     fill="#cccccc"
     style="stroke-width:1.28231" />
  <path
     id="e27373f7-fd0b-426a-8828-0829b084b689"
     data-name="Path 680"
     d="m 133.34788,503.80931 a 4.1905897,4.1905897 0 0 0 0,8.38117 h 244.01466 a 4.1905897,4.1905897 0 1 0 0,-8.38117 z"
     fill="#cccccc"
     style="stroke-width:1.28231" />
  <path
     id="b4c6c7b3-e22e-4fba-a4f6-80d19d07dbd3"
     data-name="Path 680"
     d="m 133.34788,537.14937 a 4.19059,4.19059 0 0 0 0,8.38118 h 244.01466 a 4.19059,4.19059 0 1 0 0,-8.38118 z"
     fill="#cccccc"
     style="stroke-width:1.28231" />
  <path
     id="ebf0dc46-a6ad-47cb-a3de-ddb71e9e94e3"
     data-name="Path 680"
     d="m 133.34788,570.48944 a 4.19059,4.19059 0 0 0 0,8.38118 h 244.01466 a 4.19059,4.19059 0 1 0 0,-8.38118 z"
     fill="#cccccc"
     style="stroke-width:1.28231" />
  <path
     d="M 938.3169,580.66467 H 568.87981 a 9.3236775,9.3236775 0 0 1 -9.31355,-9.31353 V 354.03519 a 9.3236775,9.3236775 0 0 1 9.31355,-9.31353 H 938.3169 a 9.3236775,9.3236775 0 0 1 9.31355,9.31353 v 217.31595 a 9.3236775,9.3236775 0 0 1 -9.31355,9.31353 z"
     fill="#f1f1f1"
     id="path19"
     style="stroke-width:1.28231" />
  <path
     d="M 986.91669,630.36949 H 617.47963 a 9.3236775,9.3236775 0 0 1 -9.31353,-9.31355 V 403.74 a 9.3236775,9.3236775 0 0 1 9.31353,-9.31354 h 369.43706 a 9.3236775,9.3236775 0 0 1 9.31354,9.31354 v 217.31594 a 9.3236775,9.3236775 0 0 1 -9.31354,9.31355 z"
     fill="#ffffff"
     id="path21"
     style="stroke-width:1.28231" />
  <path
     d="M 986.91641,633.53886 H 617.47963 a 12.497126,12.497126 0 0 1 -12.48284,-12.4831 V 403.74048 a 12.497139,12.497139 0 0 1 12.48284,-12.48311 h 369.43678 a 12.497203,12.497203 0 0 1 12.48311,12.48311 v 217.31529 a 12.49719,12.49719 0 0 1 -12.48311,12.48309 z M 617.47963,397.59591 a 6.1515113,6.1515113 0 0 0 -6.14431,6.14457 v 217.31529 a 6.1515113,6.1515113 0 0 0 6.14431,6.14458 h 369.43678 a 6.1517293,6.1517293 0 0 0 6.14457,-6.14458 V 403.74048 a 6.1517293,6.1517293 0 0 0 -6.14457,-6.14457 z"
     fill="#3f3d56"
     id="path23"
     style="stroke-width:1.28231" />
  <circle
     cx="801.70013"
     cy="541.28766"
     r="32.057755"
     fill="#ff6583"
     id="circle25"
     style="fill:#ff6841;fill-opacity:1;stroke-width:1.28231" />
  <path
     d="M 863.54342,510.44626 A 20.643502,20.643502 0 0 0 834.0187,509.91878 L 730.04934,613.88866 c -13.31807,13.38038 -27.22102,-7.08453 -36.10509,-15.3372 -21.36386,-21.12907 -44.43916,18.48963 -58.79934,29.83523 h 334.10652 v -4.25317 z"
     fill="#f9b175"
     id="path27"
     style="stroke-width:1.28231" />
  <path
     d="m 451.70594,636.47389 -5.62196,-77.9049 10.09678,-73.00424 -28.67554,-1.93621 -5.66025,80.643 15.99711,75.83541 a 11.281342,11.281342 0 1 0 13.86381,-3.63306 z"
     fill="#9f616a"
     id="path29"
     style="fill:#fdc2cc;fill-opacity:1;stroke-width:1.28231" />
  <path
     d="m 423.84665,494.1209 6.73341,-29.14147 a 22.436889,22.436889 0 0 1 44.15689,7.56178 l -3.70805,32.92875 z"
     fill="#cbcbcb"
     id="path31"
     style="fill:#5ba3cd;fill-opacity:1;stroke-width:1.28231" />
  <polygon
     points="387.46,516.933 371.901,516.934 371.903,557.597 382.445,557.597 "
     fill="#9f616a"
     id="polygon33"
     style="fill:#fdc2cc;fill-opacity:1"
     transform="matrix(1.2823102,0,0,1.2823102,0.03853636,175.27747)" />
  <path
     d="m 473.4846,885.87648 26.62294,-10e-4 h 0.001 a 16.967118,16.967118 0 0 1 16.96624,16.96594 v 0.55139 l -43.58943,10e-4 z"
     fill="#2f2e41"
     id="path35"
     style="stroke-width:1.28231" />
  <polygon
     points="428.184,513.876 413.226,518.161 424.424,557.252 434.559,554.349 "
     fill="#9f616a"
     id="polygon37"
     style="fill:#fdc2cc;fill-opacity:1"
     transform="matrix(1.2823102,0,0,1.2823102,0.03853636,175.27747)" />
  <path
     d="m 539.75157,886.55383 25.59354,-7.33151 10e-4,-3e-4 a 16.967144,16.967144 0 0 1 20.98187,11.63859 l 0.15182,0.53002 -41.90407,12.0037 z"
     fill="#2f2e41"
     id="path39"
     style="stroke-width:1.28231" />
  <path
     d="m 469.62635,871.36429 6.28856,-157.95305 -16.33141,-71.48133 c -21.97699,-36.84731 1.7323,-95.62204 1.97456,-96.21167 l 0.0882,-0.2149 0.23045,-0.0315 57.48853,-7.78875 0.80751,1.85313 a 275.30077,275.30077 0 0 1 17.885,163.51519 l -5.98333,30.60342 29.57177,119.39627 -27.98727,13.99374 -21.47299,-55.68368 -14.51462,56.97146 z"
     fill="#2f2e41"
     id="path41"
     style="stroke-width:1.28231" />
  <path
     d="m 453.98637,560.36814 -18.75489,-54.95352 c -11.65922,-20.53244 -4.26381,-38.76106 3.9936,-50.4372 8.91711,-12.60823 9.45242,-19.67909 9.5707,-19.75743 l 0.0954,-0.063 24.64079,-0.74667 22.80515,23.17318 c 1.43452,-0.5605 13.55146,29.30017 12.52433,30.80142 l 15.92757,51.48732 z"
     fill="#cbcbcb"
     id="path43"
     style="fill:#5ba3cd;fill-opacity:1;stroke-width:1.28231" />
  <path
     d="m 605.84602,569.87196 -61.78162,-47.78923 -47.64382,-56.22837 -20.57417,20.06836 56.29387,58.02005 67.16227,38.68012 a 11.281342,11.281342 0 1 0 6.54351,-12.75098 z"
     fill="#9f616a"
     id="path45"
     style="fill:#fdc2cc;fill-opacity:1;stroke-width:1.28231" />
  <path
     d="m 469.9995,506.25495 -17.21484,-24.45841 a 22.436889,22.436889 0 0 1 35.09358,-27.84697 l 22.05445,24.73169 z"
     fill="#cbcbcb"
     id="path47"
     style="fill:#5ba3cd;fill-opacity:1;stroke-width:1.28231" />
  <circle
     cx="458.31345"
     cy="403.54083"
     r="29.261024"
     fill="#9f616a"
     id="circle49"
     style="fill:#fdc2cc;fill-opacity:1;stroke-width:1.28231" />
  <path
     d="m 488.06613,388.69623 h -46.46304 v -20.25312 c 10.19811,-4.05152 20.17749,-7.49711 26.20991,0 a 20.25323,20.25323 0 0 1 20.25312,20.25311 z"
     fill="#2f2e41"
     id="path51"
     style="stroke-width:1.28231" />
  <path
     d="m 448.59857,364.02622 c -42.57035,-1.16251 -34.50915,68.96992 -34.50915,68.96992 0,0 8.03164,1.06218 11.69648,1.68623 l 4.42592,-2.49241 4.76232,3.12336 c 2.18668,0.0115 4.48389,-0.0314 6.86549,-0.0756 l 2.18319,-4.49539 4.86841,4.41474 c 8.86164,0.0132 32.9123,0.25739 32.9123,0.25739 0,0 14.49362,-70.08562 -33.20496,-71.38819 z"
     fill="#2f2e41"
     id="path53"
     style="stroke-width:1.28231" />
  <path
     d="M 792.73911,904.18145 H 304.17893 a 1.2823102,1.2823102 0 0 1 0,-2.56462 h 488.56018 a 1.2823102,1.2823102 0 0 1 0,2.56462 z"
     fill="#cbcbcb"
     id="path55"
     style="fill:#ff6841;fill-opacity:1;stroke-width:1.28231" />
</svg>
